<mxfile host="Electron" modified="2023-09-17T15:52:40.645Z" agent="Mozilla/5.0 (Windows NT 10.0; Win64; x64) AppleWebKit/537.36 (KHTML, like Gecko) draw.io/21.7.5 Chrome/114.0.5735.289 Electron/25.8.1 Safari/537.36" etag="MXFPPCH9k8e9GPHGKXRd" version="21.7.5" type="device" pages="2">
  <diagram name="ERD" id="bgtnKVLLnj-ARr8mbfjc">
    <mxGraphModel dx="1234" dy="726" grid="1" gridSize="10" guides="1" tooltips="1" connect="1" arrows="1" fold="1" page="1" pageScale="1" pageWidth="1600" pageHeight="900" math="0" shadow="0">
      <root>
        <mxCell id="0" />
        <mxCell id="1" parent="0" />
        <mxCell id="aNewC-5KHL_5yEbfK1jK-1" value="Customer" style="shape=table;startSize=30;container=1;collapsible=1;childLayout=tableLayout;fixedRows=1;rowLines=0;fontStyle=1;align=center;resizeLast=1;html=1;" parent="1" vertex="1">
          <mxGeometry x="230" y="140" width="239" height="240" as="geometry" />
        </mxCell>
        <mxCell id="aNewC-5KHL_5yEbfK1jK-2" value="" style="shape=tableRow;horizontal=0;startSize=0;swimlaneHead=0;swimlaneBody=0;fillColor=none;collapsible=0;dropTarget=0;points=[[0,0.5],[1,0.5]];portConstraint=eastwest;top=0;left=0;right=0;bottom=1;" parent="aNewC-5KHL_5yEbfK1jK-1" vertex="1">
          <mxGeometry y="30" width="239" height="30" as="geometry" />
        </mxCell>
        <mxCell id="aNewC-5KHL_5yEbfK1jK-3" value="PK" style="shape=partialRectangle;connectable=0;fillColor=none;top=0;left=0;bottom=0;right=0;fontStyle=1;overflow=hidden;whiteSpace=wrap;html=1;" parent="aNewC-5KHL_5yEbfK1jK-2" vertex="1">
          <mxGeometry width="30" height="30" as="geometry">
            <mxRectangle width="30" height="30" as="alternateBounds" />
          </mxGeometry>
        </mxCell>
        <mxCell id="aNewC-5KHL_5yEbfK1jK-4" value="ID_Cutomer&lt;span style=&quot;white-space: pre;&quot;&gt;&#x9;&lt;/span&gt;&lt;span style=&quot;white-space: pre;&quot;&gt;&#x9;&lt;/span&gt;int" style="shape=partialRectangle;connectable=0;fillColor=none;top=0;left=0;bottom=0;right=0;align=left;spacingLeft=6;fontStyle=5;overflow=hidden;whiteSpace=wrap;html=1;" parent="aNewC-5KHL_5yEbfK1jK-2" vertex="1">
          <mxGeometry x="30" width="209" height="30" as="geometry">
            <mxRectangle width="209" height="30" as="alternateBounds" />
          </mxGeometry>
        </mxCell>
        <mxCell id="aNewC-5KHL_5yEbfK1jK-5" value="" style="shape=tableRow;horizontal=0;startSize=0;swimlaneHead=0;swimlaneBody=0;fillColor=none;collapsible=0;dropTarget=0;points=[[0,0.5],[1,0.5]];portConstraint=eastwest;top=0;left=0;right=0;bottom=0;" parent="aNewC-5KHL_5yEbfK1jK-1" vertex="1">
          <mxGeometry y="60" width="239" height="30" as="geometry" />
        </mxCell>
        <mxCell id="aNewC-5KHL_5yEbfK1jK-6" value="" style="shape=partialRectangle;connectable=0;fillColor=none;top=0;left=0;bottom=0;right=0;editable=1;overflow=hidden;whiteSpace=wrap;html=1;" parent="aNewC-5KHL_5yEbfK1jK-5" vertex="1">
          <mxGeometry width="30" height="30" as="geometry">
            <mxRectangle width="30" height="30" as="alternateBounds" />
          </mxGeometry>
        </mxCell>
        <mxCell id="aNewC-5KHL_5yEbfK1jK-7" value="Name&lt;span style=&quot;white-space: pre;&quot;&gt;&#x9;&lt;/span&gt;&lt;span style=&quot;white-space: pre;&quot;&gt;&#x9;&lt;span style=&quot;white-space: pre;&quot;&gt;&#x9;&lt;/span&gt;&lt;/span&gt;VARCHAR(255)" style="shape=partialRectangle;connectable=0;fillColor=none;top=0;left=0;bottom=0;right=0;align=left;spacingLeft=6;overflow=hidden;whiteSpace=wrap;html=1;" parent="aNewC-5KHL_5yEbfK1jK-5" vertex="1">
          <mxGeometry x="30" width="209" height="30" as="geometry">
            <mxRectangle width="209" height="30" as="alternateBounds" />
          </mxGeometry>
        </mxCell>
        <mxCell id="aNewC-5KHL_5yEbfK1jK-8" value="" style="shape=tableRow;horizontal=0;startSize=0;swimlaneHead=0;swimlaneBody=0;fillColor=none;collapsible=0;dropTarget=0;points=[[0,0.5],[1,0.5]];portConstraint=eastwest;top=0;left=0;right=0;bottom=0;" parent="aNewC-5KHL_5yEbfK1jK-1" vertex="1">
          <mxGeometry y="90" width="239" height="30" as="geometry" />
        </mxCell>
        <mxCell id="aNewC-5KHL_5yEbfK1jK-9" value="" style="shape=partialRectangle;connectable=0;fillColor=none;top=0;left=0;bottom=0;right=0;editable=1;overflow=hidden;whiteSpace=wrap;html=1;" parent="aNewC-5KHL_5yEbfK1jK-8" vertex="1">
          <mxGeometry width="30" height="30" as="geometry">
            <mxRectangle width="30" height="30" as="alternateBounds" />
          </mxGeometry>
        </mxCell>
        <mxCell id="aNewC-5KHL_5yEbfK1jK-10" value="Address&lt;span style=&quot;&quot;&gt;&lt;span style=&quot;white-space: pre;&quot;&gt;&amp;nbsp;&amp;nbsp;&amp;nbsp;&amp;nbsp;&lt;/span&gt;&lt;/span&gt;&lt;span style=&quot;&quot;&gt;&lt;span style=&quot;white-space: pre;&quot;&gt;&amp;nbsp;&amp;nbsp;&amp;nbsp;&amp;nbsp;&lt;span style=&quot;white-space: pre;&quot;&gt;&#x9;&lt;span style=&quot;white-space: pre;&quot;&gt;&#x9;&lt;/span&gt;&lt;/span&gt;&lt;/span&gt;&lt;/span&gt;VARCHAR(255)" style="shape=partialRectangle;connectable=0;fillColor=none;top=0;left=0;bottom=0;right=0;align=left;spacingLeft=6;overflow=hidden;whiteSpace=wrap;html=1;" parent="aNewC-5KHL_5yEbfK1jK-8" vertex="1">
          <mxGeometry x="30" width="209" height="30" as="geometry">
            <mxRectangle width="209" height="30" as="alternateBounds" />
          </mxGeometry>
        </mxCell>
        <mxCell id="aNewC-5KHL_5yEbfK1jK-11" value="" style="shape=tableRow;horizontal=0;startSize=0;swimlaneHead=0;swimlaneBody=0;fillColor=none;collapsible=0;dropTarget=0;points=[[0,0.5],[1,0.5]];portConstraint=eastwest;top=0;left=0;right=0;bottom=0;" parent="aNewC-5KHL_5yEbfK1jK-1" vertex="1">
          <mxGeometry y="120" width="239" height="30" as="geometry" />
        </mxCell>
        <mxCell id="aNewC-5KHL_5yEbfK1jK-12" value="" style="shape=partialRectangle;connectable=0;fillColor=none;top=0;left=0;bottom=0;right=0;editable=1;overflow=hidden;whiteSpace=wrap;html=1;" parent="aNewC-5KHL_5yEbfK1jK-11" vertex="1">
          <mxGeometry width="30" height="30" as="geometry">
            <mxRectangle width="30" height="30" as="alternateBounds" />
          </mxGeometry>
        </mxCell>
        <mxCell id="aNewC-5KHL_5yEbfK1jK-13" value="Phone_Number&lt;span style=&quot;&quot;&gt;&lt;span style=&quot;white-space: pre;&quot;&gt;&amp;nbsp;&amp;nbsp;&amp;nbsp;&amp;nbsp;&lt;span style=&quot;white-space: pre;&quot;&gt;&#x9;&lt;/span&gt;&lt;/span&gt;&lt;/span&gt;VARCHAR(15)" style="shape=partialRectangle;connectable=0;fillColor=none;top=0;left=0;bottom=0;right=0;align=left;spacingLeft=6;overflow=hidden;whiteSpace=wrap;html=1;" parent="aNewC-5KHL_5yEbfK1jK-11" vertex="1">
          <mxGeometry x="30" width="209" height="30" as="geometry">
            <mxRectangle width="209" height="30" as="alternateBounds" />
          </mxGeometry>
        </mxCell>
        <mxCell id="aNewC-5KHL_5yEbfK1jK-27" value="" style="shape=tableRow;horizontal=0;startSize=0;swimlaneHead=0;swimlaneBody=0;fillColor=none;collapsible=0;dropTarget=0;points=[[0,0.5],[1,0.5]];portConstraint=eastwest;top=0;left=0;right=0;bottom=0;" parent="aNewC-5KHL_5yEbfK1jK-1" vertex="1">
          <mxGeometry y="150" width="239" height="30" as="geometry" />
        </mxCell>
        <mxCell id="aNewC-5KHL_5yEbfK1jK-28" value="" style="shape=partialRectangle;connectable=0;fillColor=none;top=0;left=0;bottom=0;right=0;editable=1;overflow=hidden;whiteSpace=wrap;html=1;" parent="aNewC-5KHL_5yEbfK1jK-27" vertex="1">
          <mxGeometry width="30" height="30" as="geometry">
            <mxRectangle width="30" height="30" as="alternateBounds" />
          </mxGeometry>
        </mxCell>
        <mxCell id="aNewC-5KHL_5yEbfK1jK-29" value="Email&lt;span style=&quot;&quot;&gt;&lt;span style=&quot;white-space: pre;&quot;&gt;&amp;nbsp;&amp;nbsp;&amp;nbsp;&amp;nbsp;&lt;/span&gt;&lt;/span&gt;&lt;span style=&quot;&quot;&gt;&lt;span style=&quot;white-space: pre;&quot;&gt;&amp;nbsp;&amp;nbsp;&amp;nbsp;&amp;nbsp;&lt;/span&gt;&lt;/span&gt;&lt;span style=&quot;&quot;&gt;&lt;span style=&quot;white-space: pre;&quot;&gt;&amp;nbsp;&amp;nbsp;&amp;nbsp;&amp;nbsp;&lt;span style=&quot;white-space: pre;&quot;&gt;&#x9;&lt;/span&gt;&lt;span style=&quot;white-space: pre;&quot;&gt;&#x9;&lt;/span&gt;&lt;/span&gt;&lt;/span&gt;VARCHAR(255)" style="shape=partialRectangle;connectable=0;fillColor=none;top=0;left=0;bottom=0;right=0;align=left;spacingLeft=6;overflow=hidden;whiteSpace=wrap;html=1;" parent="aNewC-5KHL_5yEbfK1jK-27" vertex="1">
          <mxGeometry x="30" width="209" height="30" as="geometry">
            <mxRectangle width="209" height="30" as="alternateBounds" />
          </mxGeometry>
        </mxCell>
        <mxCell id="aNewC-5KHL_5yEbfK1jK-30" value="" style="shape=tableRow;horizontal=0;startSize=0;swimlaneHead=0;swimlaneBody=0;fillColor=none;collapsible=0;dropTarget=0;points=[[0,0.5],[1,0.5]];portConstraint=eastwest;top=0;left=0;right=0;bottom=0;" parent="aNewC-5KHL_5yEbfK1jK-1" vertex="1">
          <mxGeometry y="180" width="239" height="30" as="geometry" />
        </mxCell>
        <mxCell id="aNewC-5KHL_5yEbfK1jK-31" value="" style="shape=partialRectangle;connectable=0;fillColor=none;top=0;left=0;bottom=0;right=0;editable=1;overflow=hidden;whiteSpace=wrap;html=1;" parent="aNewC-5KHL_5yEbfK1jK-30" vertex="1">
          <mxGeometry width="30" height="30" as="geometry">
            <mxRectangle width="30" height="30" as="alternateBounds" />
          </mxGeometry>
        </mxCell>
        <mxCell id="aNewC-5KHL_5yEbfK1jK-32" value="&lt;span style=&quot;&quot;&gt;Username&lt;span style=&quot;white-space: pre;&quot;&gt;&amp;nbsp;&amp;nbsp;&amp;nbsp;&amp;nbsp;&lt;span style=&quot;white-space: pre;&quot;&gt;&#x9;&lt;span style=&quot;white-space: pre;&quot;&gt;&#x9;&lt;/span&gt;&lt;/span&gt;&lt;/span&gt;&lt;/span&gt;VARCHAR(255)" style="shape=partialRectangle;connectable=0;fillColor=none;top=0;left=0;bottom=0;right=0;align=left;spacingLeft=6;overflow=hidden;whiteSpace=wrap;html=1;" parent="aNewC-5KHL_5yEbfK1jK-30" vertex="1">
          <mxGeometry x="30" width="209" height="30" as="geometry">
            <mxRectangle width="209" height="30" as="alternateBounds" />
          </mxGeometry>
        </mxCell>
        <mxCell id="aNewC-5KHL_5yEbfK1jK-33" value="" style="shape=tableRow;horizontal=0;startSize=0;swimlaneHead=0;swimlaneBody=0;fillColor=none;collapsible=0;dropTarget=0;points=[[0,0.5],[1,0.5]];portConstraint=eastwest;top=0;left=0;right=0;bottom=0;" parent="aNewC-5KHL_5yEbfK1jK-1" vertex="1">
          <mxGeometry y="210" width="239" height="30" as="geometry" />
        </mxCell>
        <mxCell id="aNewC-5KHL_5yEbfK1jK-34" value="" style="shape=partialRectangle;connectable=0;fillColor=none;top=0;left=0;bottom=0;right=0;editable=1;overflow=hidden;whiteSpace=wrap;html=1;" parent="aNewC-5KHL_5yEbfK1jK-33" vertex="1">
          <mxGeometry width="30" height="30" as="geometry">
            <mxRectangle width="30" height="30" as="alternateBounds" />
          </mxGeometry>
        </mxCell>
        <mxCell id="aNewC-5KHL_5yEbfK1jK-35" value="&lt;span style=&quot;&quot;&gt;Password&lt;span style=&quot;white-space: pre;&quot;&gt;&amp;nbsp;&amp;nbsp;&amp;nbsp;&amp;nbsp;&lt;span style=&quot;white-space: pre;&quot;&gt;&#x9;&lt;span style=&quot;white-space: pre;&quot;&gt;&#x9;&lt;/span&gt;&lt;/span&gt;&lt;/span&gt;&lt;/span&gt;VARCHAR(255)" style="shape=partialRectangle;connectable=0;fillColor=none;top=0;left=0;bottom=0;right=0;align=left;spacingLeft=6;overflow=hidden;whiteSpace=wrap;html=1;" parent="aNewC-5KHL_5yEbfK1jK-33" vertex="1">
          <mxGeometry x="30" width="209" height="30" as="geometry">
            <mxRectangle width="209" height="30" as="alternateBounds" />
          </mxGeometry>
        </mxCell>
        <mxCell id="aNewC-5KHL_5yEbfK1jK-36" value="Ticket" style="shape=table;startSize=30;container=1;collapsible=1;childLayout=tableLayout;fixedRows=1;rowLines=0;fontStyle=1;align=center;resizeLast=1;html=1;" parent="1" vertex="1">
          <mxGeometry x="1070" y="360" width="300" height="300" as="geometry" />
        </mxCell>
        <mxCell id="aNewC-5KHL_5yEbfK1jK-37" value="" style="shape=tableRow;horizontal=0;startSize=0;swimlaneHead=0;swimlaneBody=0;fillColor=none;collapsible=0;dropTarget=0;points=[[0,0.5],[1,0.5]];portConstraint=eastwest;top=0;left=0;right=0;bottom=1;" parent="aNewC-5KHL_5yEbfK1jK-36" vertex="1">
          <mxGeometry y="30" width="300" height="30" as="geometry" />
        </mxCell>
        <mxCell id="aNewC-5KHL_5yEbfK1jK-38" value="PK" style="shape=partialRectangle;connectable=0;fillColor=none;top=0;left=0;bottom=0;right=0;fontStyle=1;overflow=hidden;whiteSpace=wrap;html=1;" parent="aNewC-5KHL_5yEbfK1jK-37" vertex="1">
          <mxGeometry width="30" height="30" as="geometry">
            <mxRectangle width="30" height="30" as="alternateBounds" />
          </mxGeometry>
        </mxCell>
        <mxCell id="aNewC-5KHL_5yEbfK1jK-39" value="ID_Ticket&lt;span style=&quot;white-space: pre;&quot;&gt;&#x9;&lt;/span&gt;&lt;span style=&quot;white-space: pre;&quot;&gt;&#x9;&lt;/span&gt;int" style="shape=partialRectangle;connectable=0;fillColor=none;top=0;left=0;bottom=0;right=0;align=left;spacingLeft=6;fontStyle=5;overflow=hidden;whiteSpace=wrap;html=1;" parent="aNewC-5KHL_5yEbfK1jK-37" vertex="1">
          <mxGeometry x="30" width="270" height="30" as="geometry">
            <mxRectangle width="270" height="30" as="alternateBounds" />
          </mxGeometry>
        </mxCell>
        <mxCell id="aNewC-5KHL_5yEbfK1jK-40" value="" style="shape=tableRow;horizontal=0;startSize=0;swimlaneHead=0;swimlaneBody=0;fillColor=none;collapsible=0;dropTarget=0;points=[[0,0.5],[1,0.5]];portConstraint=eastwest;top=0;left=0;right=0;bottom=0;" parent="aNewC-5KHL_5yEbfK1jK-36" vertex="1">
          <mxGeometry y="60" width="300" height="30" as="geometry" />
        </mxCell>
        <mxCell id="aNewC-5KHL_5yEbfK1jK-41" value="" style="shape=partialRectangle;connectable=0;fillColor=none;top=0;left=0;bottom=0;right=0;editable=1;overflow=hidden;whiteSpace=wrap;html=1;" parent="aNewC-5KHL_5yEbfK1jK-40" vertex="1">
          <mxGeometry width="30" height="30" as="geometry">
            <mxRectangle width="30" height="30" as="alternateBounds" />
          </mxGeometry>
        </mxCell>
        <mxCell id="aNewC-5KHL_5yEbfK1jK-42" value="Train_Name&lt;span style=&quot;white-space: pre;&quot;&gt;&#x9;&lt;/span&gt;&lt;span style=&quot;white-space: pre;&quot;&gt;&#x9;&lt;span style=&quot;white-space: pre;&quot;&gt;&#x9;&lt;span style=&quot;white-space: pre;&quot;&gt;&#x9;&lt;/span&gt;&lt;/span&gt;&lt;/span&gt;VARCHAR(255)" style="shape=partialRectangle;connectable=0;fillColor=none;top=0;left=0;bottom=0;right=0;align=left;spacingLeft=6;overflow=hidden;whiteSpace=wrap;html=1;" parent="aNewC-5KHL_5yEbfK1jK-40" vertex="1">
          <mxGeometry x="30" width="270" height="30" as="geometry">
            <mxRectangle width="270" height="30" as="alternateBounds" />
          </mxGeometry>
        </mxCell>
        <mxCell id="aNewC-5KHL_5yEbfK1jK-43" value="" style="shape=tableRow;horizontal=0;startSize=0;swimlaneHead=0;swimlaneBody=0;fillColor=none;collapsible=0;dropTarget=0;points=[[0,0.5],[1,0.5]];portConstraint=eastwest;top=0;left=0;right=0;bottom=0;" parent="aNewC-5KHL_5yEbfK1jK-36" vertex="1">
          <mxGeometry y="90" width="300" height="30" as="geometry" />
        </mxCell>
        <mxCell id="aNewC-5KHL_5yEbfK1jK-44" value="" style="shape=partialRectangle;connectable=0;fillColor=none;top=0;left=0;bottom=0;right=0;editable=1;overflow=hidden;whiteSpace=wrap;html=1;" parent="aNewC-5KHL_5yEbfK1jK-43" vertex="1">
          <mxGeometry width="30" height="30" as="geometry">
            <mxRectangle width="30" height="30" as="alternateBounds" />
          </mxGeometry>
        </mxCell>
        <mxCell id="aNewC-5KHL_5yEbfK1jK-45" value="&lt;span style=&quot;&quot;&gt;Train_Number&lt;span style=&quot;white-space: pre;&quot;&gt;&amp;nbsp;&amp;nbsp;&amp;nbsp;&amp;nbsp;&lt;/span&gt;&lt;/span&gt;&lt;span style=&quot;&quot;&gt;&lt;span style=&quot;white-space: pre;&quot;&gt;&amp;nbsp;&amp;nbsp;&amp;nbsp;&amp;nbsp;&lt;span style=&quot;white-space: pre;&quot;&gt;&#x9;&lt;span style=&quot;white-space: pre;&quot;&gt;&#x9;&lt;span style=&quot;white-space: pre;&quot;&gt;&#x9;&lt;/span&gt;&lt;/span&gt;&lt;/span&gt;&lt;/span&gt;&lt;/span&gt;VARCHAR(255)" style="shape=partialRectangle;connectable=0;fillColor=none;top=0;left=0;bottom=0;right=0;align=left;spacingLeft=6;overflow=hidden;whiteSpace=wrap;html=1;" parent="aNewC-5KHL_5yEbfK1jK-43" vertex="1">
          <mxGeometry x="30" width="270" height="30" as="geometry">
            <mxRectangle width="270" height="30" as="alternateBounds" />
          </mxGeometry>
        </mxCell>
        <mxCell id="aNewC-5KHL_5yEbfK1jK-49" value="" style="shape=tableRow;horizontal=0;startSize=0;swimlaneHead=0;swimlaneBody=0;fillColor=none;collapsible=0;dropTarget=0;points=[[0,0.5],[1,0.5]];portConstraint=eastwest;top=0;left=0;right=0;bottom=0;" parent="aNewC-5KHL_5yEbfK1jK-36" vertex="1">
          <mxGeometry y="120" width="300" height="30" as="geometry" />
        </mxCell>
        <mxCell id="aNewC-5KHL_5yEbfK1jK-50" value="FK" style="shape=partialRectangle;connectable=0;fillColor=none;top=0;left=0;bottom=0;right=0;editable=1;overflow=hidden;whiteSpace=wrap;html=1;" parent="aNewC-5KHL_5yEbfK1jK-49" vertex="1">
          <mxGeometry width="30" height="30" as="geometry">
            <mxRectangle width="30" height="30" as="alternateBounds" />
          </mxGeometry>
        </mxCell>
        <mxCell id="aNewC-5KHL_5yEbfK1jK-51" value="&lt;span style=&quot;&quot;&gt;Depature_Station&lt;span style=&quot;white-space: pre;&quot;&gt;&amp;nbsp;&amp;nbsp;&amp;nbsp;&amp;nbsp;&lt;/span&gt;&lt;/span&gt;&lt;span style=&quot;&quot;&gt;&lt;span style=&quot;white-space: pre;&quot;&gt;&amp;nbsp;&amp;nbsp;&amp;nbsp;&amp;nbsp;&lt;/span&gt;&lt;/span&gt;&lt;span style=&quot;&quot;&gt;&lt;span style=&quot;white-space: pre;&quot;&gt;&amp;nbsp;&amp;nbsp;&amp;nbsp;&amp;nbsp;&lt;span style=&quot;white-space: pre;&quot;&gt;&#x9;&lt;/span&gt;&lt;/span&gt;&lt;/span&gt;VARCHAR(255)" style="shape=partialRectangle;connectable=0;fillColor=none;top=0;left=0;bottom=0;right=0;align=left;spacingLeft=6;overflow=hidden;whiteSpace=wrap;html=1;" parent="aNewC-5KHL_5yEbfK1jK-49" vertex="1">
          <mxGeometry x="30" width="270" height="30" as="geometry">
            <mxRectangle width="270" height="30" as="alternateBounds" />
          </mxGeometry>
        </mxCell>
        <mxCell id="aNewC-5KHL_5yEbfK1jK-52" value="" style="shape=tableRow;horizontal=0;startSize=0;swimlaneHead=0;swimlaneBody=0;fillColor=none;collapsible=0;dropTarget=0;points=[[0,0.5],[1,0.5]];portConstraint=eastwest;top=0;left=0;right=0;bottom=0;" parent="aNewC-5KHL_5yEbfK1jK-36" vertex="1">
          <mxGeometry y="150" width="300" height="30" as="geometry" />
        </mxCell>
        <mxCell id="aNewC-5KHL_5yEbfK1jK-53" value="FK" style="shape=partialRectangle;connectable=0;fillColor=none;top=0;left=0;bottom=0;right=0;editable=1;overflow=hidden;whiteSpace=wrap;html=1;" parent="aNewC-5KHL_5yEbfK1jK-52" vertex="1">
          <mxGeometry width="30" height="30" as="geometry">
            <mxRectangle width="30" height="30" as="alternateBounds" />
          </mxGeometry>
        </mxCell>
        <mxCell id="aNewC-5KHL_5yEbfK1jK-54" value="&lt;span style=&quot;&quot;&gt;Arrival_Station&lt;span style=&quot;white-space: pre;&quot;&gt;&amp;nbsp;&amp;nbsp;&amp;nbsp;&lt;span style=&quot;white-space: pre;&quot;&gt;&#x9;&lt;span style=&quot;white-space: pre;&quot;&gt;&#x9;&lt;span style=&quot;white-space: pre;&quot;&gt;&#x9;&lt;/span&gt;&lt;/span&gt;&lt;/span&gt;&lt;/span&gt;&lt;/span&gt;VARCHAR(255)" style="shape=partialRectangle;connectable=0;fillColor=none;top=0;left=0;bottom=0;right=0;align=left;spacingLeft=6;overflow=hidden;whiteSpace=wrap;html=1;" parent="aNewC-5KHL_5yEbfK1jK-52" vertex="1">
          <mxGeometry x="30" width="270" height="30" as="geometry">
            <mxRectangle width="270" height="30" as="alternateBounds" />
          </mxGeometry>
        </mxCell>
        <mxCell id="aNewC-5KHL_5yEbfK1jK-55" value="" style="shape=tableRow;horizontal=0;startSize=0;swimlaneHead=0;swimlaneBody=0;fillColor=none;collapsible=0;dropTarget=0;points=[[0,0.5],[1,0.5]];portConstraint=eastwest;top=0;left=0;right=0;bottom=0;" parent="aNewC-5KHL_5yEbfK1jK-36" vertex="1">
          <mxGeometry y="180" width="300" height="30" as="geometry" />
        </mxCell>
        <mxCell id="aNewC-5KHL_5yEbfK1jK-56" value="" style="shape=partialRectangle;connectable=0;fillColor=none;top=0;left=0;bottom=0;right=0;editable=1;overflow=hidden;whiteSpace=wrap;html=1;" parent="aNewC-5KHL_5yEbfK1jK-55" vertex="1">
          <mxGeometry width="30" height="30" as="geometry">
            <mxRectangle width="30" height="30" as="alternateBounds" />
          </mxGeometry>
        </mxCell>
        <mxCell id="aNewC-5KHL_5yEbfK1jK-57" value="&lt;span style=&quot;&quot;&gt;&lt;span style=&quot;white-space: pre;&quot;&gt;&amp;nbsp;Date_of_Departure&amp;nbsp;&amp;nbsp;&amp;nbsp;&lt;span style=&quot;white-space: pre;&quot;&gt;&#x9;&lt;span style=&quot;white-space: pre;&quot;&gt;&#x9;&lt;/span&gt;&lt;/span&gt;&lt;/span&gt;&lt;/span&gt;VARCHAR(255)" style="shape=partialRectangle;connectable=0;fillColor=none;top=0;left=0;bottom=0;right=0;align=left;spacingLeft=6;overflow=hidden;whiteSpace=wrap;html=1;" parent="aNewC-5KHL_5yEbfK1jK-55" vertex="1">
          <mxGeometry x="30" width="270" height="30" as="geometry">
            <mxRectangle width="270" height="30" as="alternateBounds" />
          </mxGeometry>
        </mxCell>
        <mxCell id="aNewC-5KHL_5yEbfK1jK-80" value="" style="shape=tableRow;horizontal=0;startSize=0;swimlaneHead=0;swimlaneBody=0;fillColor=none;collapsible=0;dropTarget=0;points=[[0,0.5],[1,0.5]];portConstraint=eastwest;top=0;left=0;right=0;bottom=0;" parent="aNewC-5KHL_5yEbfK1jK-36" vertex="1">
          <mxGeometry y="210" width="300" height="30" as="geometry" />
        </mxCell>
        <mxCell id="aNewC-5KHL_5yEbfK1jK-81" value="" style="shape=partialRectangle;connectable=0;fillColor=none;top=0;left=0;bottom=0;right=0;editable=1;overflow=hidden;whiteSpace=wrap;html=1;" parent="aNewC-5KHL_5yEbfK1jK-80" vertex="1">
          <mxGeometry width="30" height="30" as="geometry">
            <mxRectangle width="30" height="30" as="alternateBounds" />
          </mxGeometry>
        </mxCell>
        <mxCell id="aNewC-5KHL_5yEbfK1jK-82" value="&lt;span style=&quot;&quot;&gt;&lt;span style=&quot;white-space: pre;&quot;&gt;&amp;nbsp;Time_of_Departure&amp;nbsp;&amp;nbsp;&amp;nbsp;&lt;span style=&quot;white-space: pre;&quot;&gt;&#x9;&lt;span style=&quot;white-space: pre;&quot;&gt;&#x9;&lt;/span&gt;&lt;/span&gt;TIME&lt;/span&gt;&lt;/span&gt;" style="shape=partialRectangle;connectable=0;fillColor=none;top=0;left=0;bottom=0;right=0;align=left;spacingLeft=6;overflow=hidden;whiteSpace=wrap;html=1;" parent="aNewC-5KHL_5yEbfK1jK-80" vertex="1">
          <mxGeometry x="30" width="270" height="30" as="geometry">
            <mxRectangle width="270" height="30" as="alternateBounds" />
          </mxGeometry>
        </mxCell>
        <mxCell id="aNewC-5KHL_5yEbfK1jK-83" value="" style="shape=tableRow;horizontal=0;startSize=0;swimlaneHead=0;swimlaneBody=0;fillColor=none;collapsible=0;dropTarget=0;points=[[0,0.5],[1,0.5]];portConstraint=eastwest;top=0;left=0;right=0;bottom=0;" parent="aNewC-5KHL_5yEbfK1jK-36" vertex="1">
          <mxGeometry y="240" width="300" height="30" as="geometry" />
        </mxCell>
        <mxCell id="aNewC-5KHL_5yEbfK1jK-84" value="" style="shape=partialRectangle;connectable=0;fillColor=none;top=0;left=0;bottom=0;right=0;editable=1;overflow=hidden;whiteSpace=wrap;html=1;" parent="aNewC-5KHL_5yEbfK1jK-83" vertex="1">
          <mxGeometry width="30" height="30" as="geometry">
            <mxRectangle width="30" height="30" as="alternateBounds" />
          </mxGeometry>
        </mxCell>
        <mxCell id="aNewC-5KHL_5yEbfK1jK-85" value="&lt;span style=&quot;&quot;&gt;&lt;span style=&quot;white-space: pre;&quot;&gt;&amp;nbsp;Ticket_Price&amp;nbsp;&amp;nbsp;&amp;nbsp;&lt;span style=&quot;white-space: pre;&quot;&gt;&#x9;&lt;span style=&quot;white-space: pre;&quot;&gt;&#x9;&lt;span style=&quot;white-space: pre;&quot;&gt;&#x9;&lt;/span&gt;&lt;/span&gt;D&lt;/span&gt;ecimal(10,2)&lt;/span&gt;&lt;/span&gt;" style="shape=partialRectangle;connectable=0;fillColor=none;top=0;left=0;bottom=0;right=0;align=left;spacingLeft=6;overflow=hidden;whiteSpace=wrap;html=1;" parent="aNewC-5KHL_5yEbfK1jK-83" vertex="1">
          <mxGeometry x="30" width="270" height="30" as="geometry">
            <mxRectangle width="270" height="30" as="alternateBounds" />
          </mxGeometry>
        </mxCell>
        <mxCell id="aNewC-5KHL_5yEbfK1jK-86" value="" style="shape=tableRow;horizontal=0;startSize=0;swimlaneHead=0;swimlaneBody=0;fillColor=none;collapsible=0;dropTarget=0;points=[[0,0.5],[1,0.5]];portConstraint=eastwest;top=0;left=0;right=0;bottom=0;" parent="aNewC-5KHL_5yEbfK1jK-36" vertex="1">
          <mxGeometry y="270" width="300" height="30" as="geometry" />
        </mxCell>
        <mxCell id="aNewC-5KHL_5yEbfK1jK-87" value="" style="shape=partialRectangle;connectable=0;fillColor=none;top=0;left=0;bottom=0;right=0;editable=1;overflow=hidden;whiteSpace=wrap;html=1;" parent="aNewC-5KHL_5yEbfK1jK-86" vertex="1">
          <mxGeometry width="30" height="30" as="geometry">
            <mxRectangle width="30" height="30" as="alternateBounds" />
          </mxGeometry>
        </mxCell>
        <mxCell id="aNewC-5KHL_5yEbfK1jK-88" value="&lt;span style=&quot;&quot;&gt;&lt;span style=&quot;white-space: pre;&quot;&gt;&amp;nbsp;&amp;nbsp;Ticket_Total&amp;nbsp;&lt;span style=&quot;white-space: pre;&quot;&gt;&#x9;&lt;span style=&quot;white-space: pre;&quot;&gt;&#x9;&lt;/span&gt;&lt;span style=&quot;white-space: pre;&quot;&gt;&#x9;&lt;/span&gt;&lt;span style=&quot;white-space: pre;&quot;&gt;&#x9;&lt;/span&gt;i&lt;/span&gt;nt&lt;/span&gt;&lt;/span&gt;" style="shape=partialRectangle;connectable=0;fillColor=none;top=0;left=0;bottom=0;right=0;align=left;spacingLeft=6;overflow=hidden;whiteSpace=wrap;html=1;" parent="aNewC-5KHL_5yEbfK1jK-86" vertex="1">
          <mxGeometry x="30" width="270" height="30" as="geometry">
            <mxRectangle width="270" height="30" as="alternateBounds" />
          </mxGeometry>
        </mxCell>
        <mxCell id="aNewC-5KHL_5yEbfK1jK-89" value="Booking" style="shape=table;startSize=30;container=1;collapsible=1;childLayout=tableLayout;fixedRows=1;rowLines=0;fontStyle=1;align=center;resizeLast=1;html=1;" parent="1" vertex="1">
          <mxGeometry x="530" y="120" width="309" height="270" as="geometry" />
        </mxCell>
        <mxCell id="aNewC-5KHL_5yEbfK1jK-90" value="" style="shape=tableRow;horizontal=0;startSize=0;swimlaneHead=0;swimlaneBody=0;fillColor=none;collapsible=0;dropTarget=0;points=[[0,0.5],[1,0.5]];portConstraint=eastwest;top=0;left=0;right=0;bottom=1;" parent="aNewC-5KHL_5yEbfK1jK-89" vertex="1">
          <mxGeometry y="30" width="309" height="30" as="geometry" />
        </mxCell>
        <mxCell id="aNewC-5KHL_5yEbfK1jK-91" value="PK" style="shape=partialRectangle;connectable=0;fillColor=none;top=0;left=0;bottom=0;right=0;fontStyle=1;overflow=hidden;whiteSpace=wrap;html=1;" parent="aNewC-5KHL_5yEbfK1jK-90" vertex="1">
          <mxGeometry width="30" height="30" as="geometry">
            <mxRectangle width="30" height="30" as="alternateBounds" />
          </mxGeometry>
        </mxCell>
        <mxCell id="aNewC-5KHL_5yEbfK1jK-92" value="ID_Booking&lt;span style=&quot;white-space: pre;&quot;&gt;&#x9;&lt;/span&gt;&lt;span style=&quot;white-space: pre;&quot;&gt;&#x9;&lt;/span&gt;int" style="shape=partialRectangle;connectable=0;fillColor=none;top=0;left=0;bottom=0;right=0;align=left;spacingLeft=6;fontStyle=5;overflow=hidden;whiteSpace=wrap;html=1;" parent="aNewC-5KHL_5yEbfK1jK-90" vertex="1">
          <mxGeometry x="30" width="279" height="30" as="geometry">
            <mxRectangle width="279" height="30" as="alternateBounds" />
          </mxGeometry>
        </mxCell>
        <mxCell id="aNewC-5KHL_5yEbfK1jK-93" value="" style="shape=tableRow;horizontal=0;startSize=0;swimlaneHead=0;swimlaneBody=0;fillColor=none;collapsible=0;dropTarget=0;points=[[0,0.5],[1,0.5]];portConstraint=eastwest;top=0;left=0;right=0;bottom=0;" parent="aNewC-5KHL_5yEbfK1jK-89" vertex="1">
          <mxGeometry y="60" width="309" height="30" as="geometry" />
        </mxCell>
        <mxCell id="aNewC-5KHL_5yEbfK1jK-94" value="FK" style="shape=partialRectangle;connectable=0;fillColor=none;top=0;left=0;bottom=0;right=0;editable=1;overflow=hidden;whiteSpace=wrap;html=1;" parent="aNewC-5KHL_5yEbfK1jK-93" vertex="1">
          <mxGeometry width="30" height="30" as="geometry">
            <mxRectangle width="30" height="30" as="alternateBounds" />
          </mxGeometry>
        </mxCell>
        <mxCell id="aNewC-5KHL_5yEbfK1jK-95" value="ID_Customer&lt;span style=&quot;white-space: pre;&quot;&gt;&#x9;&lt;/span&gt;&lt;span style=&quot;white-space: pre;&quot;&gt;&#x9;&lt;span style=&quot;white-space: pre;&quot;&gt;&#x9;&lt;/span&gt;&lt;span style=&quot;white-space: pre;&quot;&gt;&#x9;&lt;/span&gt;&lt;/span&gt;int" style="shape=partialRectangle;connectable=0;fillColor=none;top=0;left=0;bottom=0;right=0;align=left;spacingLeft=6;overflow=hidden;whiteSpace=wrap;html=1;" parent="aNewC-5KHL_5yEbfK1jK-93" vertex="1">
          <mxGeometry x="30" width="279" height="30" as="geometry">
            <mxRectangle width="279" height="30" as="alternateBounds" />
          </mxGeometry>
        </mxCell>
        <mxCell id="aNewC-5KHL_5yEbfK1jK-96" value="" style="shape=tableRow;horizontal=0;startSize=0;swimlaneHead=0;swimlaneBody=0;fillColor=none;collapsible=0;dropTarget=0;points=[[0,0.5],[1,0.5]];portConstraint=eastwest;top=0;left=0;right=0;bottom=0;" parent="aNewC-5KHL_5yEbfK1jK-89" vertex="1">
          <mxGeometry y="90" width="309" height="30" as="geometry" />
        </mxCell>
        <mxCell id="aNewC-5KHL_5yEbfK1jK-97" value="FK" style="shape=partialRectangle;connectable=0;fillColor=none;top=0;left=0;bottom=0;right=0;editable=1;overflow=hidden;whiteSpace=wrap;html=1;" parent="aNewC-5KHL_5yEbfK1jK-96" vertex="1">
          <mxGeometry width="30" height="30" as="geometry">
            <mxRectangle width="30" height="30" as="alternateBounds" />
          </mxGeometry>
        </mxCell>
        <mxCell id="aNewC-5KHL_5yEbfK1jK-98" value="&lt;span style=&quot;&quot;&gt;&lt;span style=&quot;white-space: pre;&quot;&gt;ID_Ticket&amp;nbsp;&amp;nbsp;&amp;nbsp;&amp;nbsp;&lt;/span&gt;&lt;/span&gt;&lt;span style=&quot;&quot;&gt;&lt;span style=&quot;white-space: pre;&quot;&gt;&amp;nbsp;&amp;nbsp;&amp;nbsp;&amp;nbsp;&lt;span style=&quot;white-space: pre;&quot;&gt;&#x9;&lt;span style=&quot;white-space: pre;&quot;&gt;&#x9;&lt;span style=&quot;white-space: pre;&quot;&gt;&#x9;&lt;/span&gt;&lt;span style=&quot;white-space: pre;&quot;&gt;&#x9;&lt;/span&gt;&lt;/span&gt;&lt;/span&gt;&lt;/span&gt;&lt;/span&gt;int" style="shape=partialRectangle;connectable=0;fillColor=none;top=0;left=0;bottom=0;right=0;align=left;spacingLeft=6;overflow=hidden;whiteSpace=wrap;html=1;" parent="aNewC-5KHL_5yEbfK1jK-96" vertex="1">
          <mxGeometry x="30" width="279" height="30" as="geometry">
            <mxRectangle width="279" height="30" as="alternateBounds" />
          </mxGeometry>
        </mxCell>
        <mxCell id="aNewC-5KHL_5yEbfK1jK-99" value="" style="shape=tableRow;horizontal=0;startSize=0;swimlaneHead=0;swimlaneBody=0;fillColor=none;collapsible=0;dropTarget=0;points=[[0,0.5],[1,0.5]];portConstraint=eastwest;top=0;left=0;right=0;bottom=0;" parent="aNewC-5KHL_5yEbfK1jK-89" vertex="1">
          <mxGeometry y="120" width="309" height="30" as="geometry" />
        </mxCell>
        <mxCell id="aNewC-5KHL_5yEbfK1jK-100" value="" style="shape=partialRectangle;connectable=0;fillColor=none;top=0;left=0;bottom=0;right=0;editable=1;overflow=hidden;whiteSpace=wrap;html=1;" parent="aNewC-5KHL_5yEbfK1jK-99" vertex="1">
          <mxGeometry width="30" height="30" as="geometry">
            <mxRectangle width="30" height="30" as="alternateBounds" />
          </mxGeometry>
        </mxCell>
        <mxCell id="aNewC-5KHL_5yEbfK1jK-101" value="Total_Depature&lt;span style=&quot;&quot;&gt;&lt;span style=&quot;white-space: pre;&quot;&gt;&amp;nbsp;&amp;nbsp;&amp;nbsp;&amp;nbsp;&lt;span style=&quot;white-space: pre;&quot;&gt;&#x9;&lt;span style=&quot;white-space: pre;&quot;&gt;&#x9;&lt;/span&gt;&lt;span style=&quot;white-space: pre;&quot;&gt;&#x9;&lt;/span&gt;&lt;/span&gt;int&lt;/span&gt;&lt;/span&gt;" style="shape=partialRectangle;connectable=0;fillColor=none;top=0;left=0;bottom=0;right=0;align=left;spacingLeft=6;overflow=hidden;whiteSpace=wrap;html=1;" parent="aNewC-5KHL_5yEbfK1jK-99" vertex="1">
          <mxGeometry x="30" width="279" height="30" as="geometry">
            <mxRectangle width="279" height="30" as="alternateBounds" />
          </mxGeometry>
        </mxCell>
        <mxCell id="aNewC-5KHL_5yEbfK1jK-102" value="" style="shape=tableRow;horizontal=0;startSize=0;swimlaneHead=0;swimlaneBody=0;fillColor=none;collapsible=0;dropTarget=0;points=[[0,0.5],[1,0.5]];portConstraint=eastwest;top=0;left=0;right=0;bottom=0;" parent="aNewC-5KHL_5yEbfK1jK-89" vertex="1">
          <mxGeometry y="150" width="309" height="30" as="geometry" />
        </mxCell>
        <mxCell id="aNewC-5KHL_5yEbfK1jK-103" value="" style="shape=partialRectangle;connectable=0;fillColor=none;top=0;left=0;bottom=0;right=0;editable=1;overflow=hidden;whiteSpace=wrap;html=1;" parent="aNewC-5KHL_5yEbfK1jK-102" vertex="1">
          <mxGeometry width="30" height="30" as="geometry">
            <mxRectangle width="30" height="30" as="alternateBounds" />
          </mxGeometry>
        </mxCell>
        <mxCell id="aNewC-5KHL_5yEbfK1jK-104" value="&lt;span style=&quot;&quot;&gt;Total_Booking_Tincket&lt;span style=&quot;white-space: pre;&quot;&gt;&amp;nbsp;&amp;nbsp;&amp;nbsp;&amp;nbsp;&lt;/span&gt;&lt;/span&gt;&lt;span style=&quot;&quot;&gt;&lt;span style=&quot;white-space: pre;&quot;&gt;&amp;nbsp;&amp;nbsp;&amp;nbsp;&amp;nbsp;&lt;/span&gt;&lt;/span&gt;&lt;span style=&quot;&quot;&gt;&lt;span style=&quot;white-space: pre;&quot;&gt;&amp;nbsp;&amp;nbsp;&lt;span style=&quot;white-space: pre;&quot;&gt;&#x9;&lt;/span&gt;int&lt;/span&gt;&lt;/span&gt;" style="shape=partialRectangle;connectable=0;fillColor=none;top=0;left=0;bottom=0;right=0;align=left;spacingLeft=6;overflow=hidden;whiteSpace=wrap;html=1;" parent="aNewC-5KHL_5yEbfK1jK-102" vertex="1">
          <mxGeometry x="30" width="279" height="30" as="geometry">
            <mxRectangle width="279" height="30" as="alternateBounds" />
          </mxGeometry>
        </mxCell>
        <mxCell id="aNewC-5KHL_5yEbfK1jK-105" value="" style="shape=tableRow;horizontal=0;startSize=0;swimlaneHead=0;swimlaneBody=0;fillColor=none;collapsible=0;dropTarget=0;points=[[0,0.5],[1,0.5]];portConstraint=eastwest;top=0;left=0;right=0;bottom=0;" parent="aNewC-5KHL_5yEbfK1jK-89" vertex="1">
          <mxGeometry y="180" width="309" height="30" as="geometry" />
        </mxCell>
        <mxCell id="aNewC-5KHL_5yEbfK1jK-106" value="" style="shape=partialRectangle;connectable=0;fillColor=none;top=0;left=0;bottom=0;right=0;editable=1;overflow=hidden;whiteSpace=wrap;html=1;" parent="aNewC-5KHL_5yEbfK1jK-105" vertex="1">
          <mxGeometry width="30" height="30" as="geometry">
            <mxRectangle width="30" height="30" as="alternateBounds" />
          </mxGeometry>
        </mxCell>
        <mxCell id="aNewC-5KHL_5yEbfK1jK-107" value="&lt;span style=&quot;&quot;&gt;Total_Price&lt;span style=&quot;white-space: pre;&quot;&gt;&amp;nbsp;&amp;nbsp;&amp;nbsp;&amp;nbsp;&lt;span style=&quot;white-space: pre;&quot;&gt;&#x9;&lt;span style=&quot;white-space: pre;&quot;&gt;&#x9;&lt;span style=&quot;white-space: pre;&quot;&gt;&#x9;&lt;/span&gt;&lt;span style=&quot;white-space: pre;&quot;&gt;&#x9;&lt;/span&gt;&lt;/span&gt;D&lt;/span&gt;ECIMAL(10,2)&lt;/span&gt;&lt;/span&gt;" style="shape=partialRectangle;connectable=0;fillColor=none;top=0;left=0;bottom=0;right=0;align=left;spacingLeft=6;overflow=hidden;whiteSpace=wrap;html=1;" parent="aNewC-5KHL_5yEbfK1jK-105" vertex="1">
          <mxGeometry x="30" width="279" height="30" as="geometry">
            <mxRectangle width="279" height="30" as="alternateBounds" />
          </mxGeometry>
        </mxCell>
        <mxCell id="aNewC-5KHL_5yEbfK1jK-108" value="" style="shape=tableRow;horizontal=0;startSize=0;swimlaneHead=0;swimlaneBody=0;fillColor=none;collapsible=0;dropTarget=0;points=[[0,0.5],[1,0.5]];portConstraint=eastwest;top=0;left=0;right=0;bottom=0;" parent="aNewC-5KHL_5yEbfK1jK-89" vertex="1">
          <mxGeometry y="210" width="309" height="30" as="geometry" />
        </mxCell>
        <mxCell id="aNewC-5KHL_5yEbfK1jK-109" value="" style="shape=partialRectangle;connectable=0;fillColor=none;top=0;left=0;bottom=0;right=0;editable=1;overflow=hidden;whiteSpace=wrap;html=1;" parent="aNewC-5KHL_5yEbfK1jK-108" vertex="1">
          <mxGeometry width="30" height="30" as="geometry">
            <mxRectangle width="30" height="30" as="alternateBounds" />
          </mxGeometry>
        </mxCell>
        <mxCell id="aNewC-5KHL_5yEbfK1jK-110" value="&lt;span style=&quot;&quot;&gt;Total_Booking&lt;span style=&quot;white-space: pre;&quot;&gt;&amp;nbsp;&amp;nbsp;&amp;nbsp;&amp;nbsp;&lt;span style=&quot;white-space: pre;&quot;&gt;&#x9;&lt;span style=&quot;white-space: pre;&quot;&gt;&#x9;&lt;/span&gt;&lt;span style=&quot;white-space: pre;&quot;&gt;&#x9;&lt;/span&gt;D&lt;/span&gt;ATETIME&lt;/span&gt;&lt;/span&gt;" style="shape=partialRectangle;connectable=0;fillColor=none;top=0;left=0;bottom=0;right=0;align=left;spacingLeft=6;overflow=hidden;whiteSpace=wrap;html=1;" parent="aNewC-5KHL_5yEbfK1jK-108" vertex="1">
          <mxGeometry x="30" width="279" height="30" as="geometry">
            <mxRectangle width="279" height="30" as="alternateBounds" />
          </mxGeometry>
        </mxCell>
        <mxCell id="aNewC-5KHL_5yEbfK1jK-111" value="" style="shape=tableRow;horizontal=0;startSize=0;swimlaneHead=0;swimlaneBody=0;fillColor=none;collapsible=0;dropTarget=0;points=[[0,0.5],[1,0.5]];portConstraint=eastwest;top=0;left=0;right=0;bottom=0;" parent="aNewC-5KHL_5yEbfK1jK-89" vertex="1">
          <mxGeometry y="240" width="309" height="30" as="geometry" />
        </mxCell>
        <mxCell id="aNewC-5KHL_5yEbfK1jK-112" value="" style="shape=partialRectangle;connectable=0;fillColor=none;top=0;left=0;bottom=0;right=0;editable=1;overflow=hidden;whiteSpace=wrap;html=1;" parent="aNewC-5KHL_5yEbfK1jK-111" vertex="1">
          <mxGeometry width="30" height="30" as="geometry">
            <mxRectangle width="30" height="30" as="alternateBounds" />
          </mxGeometry>
        </mxCell>
        <mxCell id="aNewC-5KHL_5yEbfK1jK-113" value="&lt;span style=&quot;&quot;&gt;Status_Booking&lt;span style=&quot;white-space: pre;&quot;&gt;&amp;nbsp;&amp;nbsp;&amp;nbsp;&amp;nbsp;&lt;span style=&quot;white-space: pre;&quot;&gt;&#x9;&lt;span style=&quot;white-space: pre;&quot;&gt;&#x9;&lt;/span&gt;&lt;span style=&quot;white-space: pre;&quot;&gt;&#x9;&lt;/span&gt;&lt;/span&gt;&lt;/span&gt;&lt;/span&gt;VARCHAR(20)" style="shape=partialRectangle;connectable=0;fillColor=none;top=0;left=0;bottom=0;right=0;align=left;spacingLeft=6;overflow=hidden;whiteSpace=wrap;html=1;" parent="aNewC-5KHL_5yEbfK1jK-111" vertex="1">
          <mxGeometry x="30" width="279" height="30" as="geometry">
            <mxRectangle width="279" height="30" as="alternateBounds" />
          </mxGeometry>
        </mxCell>
        <mxCell id="aNewC-5KHL_5yEbfK1jK-114" value="Payment" style="shape=table;startSize=30;container=1;collapsible=1;childLayout=tableLayout;fixedRows=1;rowLines=0;fontStyle=1;align=center;resizeLast=1;html=1;" parent="1" vertex="1">
          <mxGeometry x="520" y="450" width="309" height="180" as="geometry" />
        </mxCell>
        <mxCell id="aNewC-5KHL_5yEbfK1jK-115" value="" style="shape=tableRow;horizontal=0;startSize=0;swimlaneHead=0;swimlaneBody=0;fillColor=none;collapsible=0;dropTarget=0;points=[[0,0.5],[1,0.5]];portConstraint=eastwest;top=0;left=0;right=0;bottom=1;" parent="aNewC-5KHL_5yEbfK1jK-114" vertex="1">
          <mxGeometry y="30" width="309" height="30" as="geometry" />
        </mxCell>
        <mxCell id="aNewC-5KHL_5yEbfK1jK-116" value="PK" style="shape=partialRectangle;connectable=0;fillColor=none;top=0;left=0;bottom=0;right=0;fontStyle=1;overflow=hidden;whiteSpace=wrap;html=1;" parent="aNewC-5KHL_5yEbfK1jK-115" vertex="1">
          <mxGeometry width="30" height="30" as="geometry">
            <mxRectangle width="30" height="30" as="alternateBounds" />
          </mxGeometry>
        </mxCell>
        <mxCell id="aNewC-5KHL_5yEbfK1jK-117" value="ID_Payment&lt;span style=&quot;white-space: pre;&quot;&gt;&#x9;&lt;/span&gt;&lt;span style=&quot;white-space: pre;&quot;&gt;&#x9;&lt;span style=&quot;white-space: pre;&quot;&gt;&#x9;&lt;/span&gt;&lt;span style=&quot;white-space: pre;&quot;&gt;&#x9;&lt;/span&gt;&lt;span style=&quot;white-space: pre;&quot;&gt;&#x9;&lt;/span&gt;&lt;/span&gt;int" style="shape=partialRectangle;connectable=0;fillColor=none;top=0;left=0;bottom=0;right=0;align=left;spacingLeft=6;fontStyle=5;overflow=hidden;whiteSpace=wrap;html=1;" parent="aNewC-5KHL_5yEbfK1jK-115" vertex="1">
          <mxGeometry x="30" width="279" height="30" as="geometry">
            <mxRectangle width="279" height="30" as="alternateBounds" />
          </mxGeometry>
        </mxCell>
        <mxCell id="aNewC-5KHL_5yEbfK1jK-118" value="" style="shape=tableRow;horizontal=0;startSize=0;swimlaneHead=0;swimlaneBody=0;fillColor=none;collapsible=0;dropTarget=0;points=[[0,0.5],[1,0.5]];portConstraint=eastwest;top=0;left=0;right=0;bottom=0;" parent="aNewC-5KHL_5yEbfK1jK-114" vertex="1">
          <mxGeometry y="60" width="309" height="30" as="geometry" />
        </mxCell>
        <mxCell id="aNewC-5KHL_5yEbfK1jK-119" value="FK" style="shape=partialRectangle;connectable=0;fillColor=none;top=0;left=0;bottom=0;right=0;editable=1;overflow=hidden;whiteSpace=wrap;html=1;" parent="aNewC-5KHL_5yEbfK1jK-118" vertex="1">
          <mxGeometry width="30" height="30" as="geometry">
            <mxRectangle width="30" height="30" as="alternateBounds" />
          </mxGeometry>
        </mxCell>
        <mxCell id="aNewC-5KHL_5yEbfK1jK-120" value="ID_Booking&lt;span style=&quot;white-space: pre;&quot;&gt;&#x9;&lt;/span&gt;&lt;span style=&quot;white-space: pre;&quot;&gt;&#x9;&lt;span style=&quot;white-space: pre;&quot;&gt;&#x9;&lt;/span&gt;&lt;span style=&quot;white-space: pre;&quot;&gt;&#x9;&lt;span style=&quot;white-space: pre;&quot;&gt;&#x9;&lt;/span&gt;&lt;/span&gt;&lt;/span&gt;int" style="shape=partialRectangle;connectable=0;fillColor=none;top=0;left=0;bottom=0;right=0;align=left;spacingLeft=6;overflow=hidden;whiteSpace=wrap;html=1;" parent="aNewC-5KHL_5yEbfK1jK-118" vertex="1">
          <mxGeometry x="30" width="279" height="30" as="geometry">
            <mxRectangle width="279" height="30" as="alternateBounds" />
          </mxGeometry>
        </mxCell>
        <mxCell id="aNewC-5KHL_5yEbfK1jK-121" value="" style="shape=tableRow;horizontal=0;startSize=0;swimlaneHead=0;swimlaneBody=0;fillColor=none;collapsible=0;dropTarget=0;points=[[0,0.5],[1,0.5]];portConstraint=eastwest;top=0;left=0;right=0;bottom=0;" parent="aNewC-5KHL_5yEbfK1jK-114" vertex="1">
          <mxGeometry y="90" width="309" height="30" as="geometry" />
        </mxCell>
        <mxCell id="aNewC-5KHL_5yEbfK1jK-122" value="" style="shape=partialRectangle;connectable=0;fillColor=none;top=0;left=0;bottom=0;right=0;editable=1;overflow=hidden;whiteSpace=wrap;html=1;" parent="aNewC-5KHL_5yEbfK1jK-121" vertex="1">
          <mxGeometry width="30" height="30" as="geometry">
            <mxRectangle width="30" height="30" as="alternateBounds" />
          </mxGeometry>
        </mxCell>
        <mxCell id="aNewC-5KHL_5yEbfK1jK-123" value="&lt;span style=&quot;&quot;&gt;&lt;span style=&quot;white-space: pre;&quot;&gt;Payment_method&amp;nbsp;&amp;nbsp;&amp;nbsp;&lt;/span&gt;&lt;/span&gt;&lt;span style=&quot;&quot;&gt;&lt;span style=&quot;white-space: pre;&quot;&gt;&amp;nbsp;&amp;nbsp;&amp;nbsp;&amp;nbsp;&lt;span style=&quot;white-space: pre;&quot;&gt;&#x9;&lt;span style=&quot;white-space: pre;&quot;&gt;&#x9;&lt;span style=&quot;white-space: pre;&quot;&gt;&#x9;&lt;/span&gt;&lt;/span&gt;&lt;/span&gt;&lt;/span&gt;&lt;/span&gt;int" style="shape=partialRectangle;connectable=0;fillColor=none;top=0;left=0;bottom=0;right=0;align=left;spacingLeft=6;overflow=hidden;whiteSpace=wrap;html=1;" parent="aNewC-5KHL_5yEbfK1jK-121" vertex="1">
          <mxGeometry x="30" width="279" height="30" as="geometry">
            <mxRectangle width="279" height="30" as="alternateBounds" />
          </mxGeometry>
        </mxCell>
        <mxCell id="aNewC-5KHL_5yEbfK1jK-124" value="" style="shape=tableRow;horizontal=0;startSize=0;swimlaneHead=0;swimlaneBody=0;fillColor=none;collapsible=0;dropTarget=0;points=[[0,0.5],[1,0.5]];portConstraint=eastwest;top=0;left=0;right=0;bottom=0;" parent="aNewC-5KHL_5yEbfK1jK-114" vertex="1">
          <mxGeometry y="120" width="309" height="30" as="geometry" />
        </mxCell>
        <mxCell id="aNewC-5KHL_5yEbfK1jK-125" value="" style="shape=partialRectangle;connectable=0;fillColor=none;top=0;left=0;bottom=0;right=0;editable=1;overflow=hidden;whiteSpace=wrap;html=1;" parent="aNewC-5KHL_5yEbfK1jK-124" vertex="1">
          <mxGeometry width="30" height="30" as="geometry">
            <mxRectangle width="30" height="30" as="alternateBounds" />
          </mxGeometry>
        </mxCell>
        <mxCell id="aNewC-5KHL_5yEbfK1jK-126" value="Status_Payment&lt;span style=&quot;&quot;&gt;&lt;span style=&quot;white-space: pre;&quot;&gt;&amp;nbsp;&amp;nbsp;&amp;nbsp;&amp;nbsp;&lt;span style=&quot;white-space: pre;&quot;&gt;&#x9;&lt;span style=&quot;white-space: pre;&quot;&gt;&#x9;&lt;/span&gt;&lt;span style=&quot;white-space: pre;&quot;&gt;&#x9;&lt;span style=&quot;white-space: pre;&quot;&gt;&#x9;&lt;/span&gt;&lt;/span&gt;V&lt;/span&gt;ARCHAR(20)&lt;/span&gt;&lt;/span&gt;" style="shape=partialRectangle;connectable=0;fillColor=none;top=0;left=0;bottom=0;right=0;align=left;spacingLeft=6;overflow=hidden;whiteSpace=wrap;html=1;" parent="aNewC-5KHL_5yEbfK1jK-124" vertex="1">
          <mxGeometry x="30" width="279" height="30" as="geometry">
            <mxRectangle width="279" height="30" as="alternateBounds" />
          </mxGeometry>
        </mxCell>
        <mxCell id="aNewC-5KHL_5yEbfK1jK-127" value="" style="shape=tableRow;horizontal=0;startSize=0;swimlaneHead=0;swimlaneBody=0;fillColor=none;collapsible=0;dropTarget=0;points=[[0,0.5],[1,0.5]];portConstraint=eastwest;top=0;left=0;right=0;bottom=0;" parent="aNewC-5KHL_5yEbfK1jK-114" vertex="1">
          <mxGeometry y="150" width="309" height="30" as="geometry" />
        </mxCell>
        <mxCell id="aNewC-5KHL_5yEbfK1jK-128" value="" style="shape=partialRectangle;connectable=0;fillColor=none;top=0;left=0;bottom=0;right=0;editable=1;overflow=hidden;whiteSpace=wrap;html=1;" parent="aNewC-5KHL_5yEbfK1jK-127" vertex="1">
          <mxGeometry width="30" height="30" as="geometry">
            <mxRectangle width="30" height="30" as="alternateBounds" />
          </mxGeometry>
        </mxCell>
        <mxCell id="aNewC-5KHL_5yEbfK1jK-129" value="&lt;span style=&quot;&quot;&gt;Date_Payment&lt;span style=&quot;white-space: pre;&quot;&gt;&amp;nbsp;&amp;nbsp;&amp;nbsp;&lt;/span&gt;&lt;/span&gt;&lt;span style=&quot;&quot;&gt;&lt;span style=&quot;white-space: pre;&quot;&gt;&amp;nbsp;&amp;nbsp;&amp;nbsp;&amp;nbsp;&lt;/span&gt;&lt;/span&gt;&lt;span style=&quot;&quot;&gt;&lt;span style=&quot;white-space: pre;&quot;&gt;&amp;nbsp;&amp;nbsp;&lt;span style=&quot;white-space: pre;&quot;&gt;&#x9;&lt;span style=&quot;white-space: pre;&quot;&gt;&#x9;&lt;/span&gt;&lt;span style=&quot;white-space: pre;&quot;&gt;&#x9;&lt;/span&gt;&lt;/span&gt;DATETIME&lt;/span&gt;&lt;/span&gt;" style="shape=partialRectangle;connectable=0;fillColor=none;top=0;left=0;bottom=0;right=0;align=left;spacingLeft=6;overflow=hidden;whiteSpace=wrap;html=1;" parent="aNewC-5KHL_5yEbfK1jK-127" vertex="1">
          <mxGeometry x="30" width="279" height="30" as="geometry">
            <mxRectangle width="279" height="30" as="alternateBounds" />
          </mxGeometry>
        </mxCell>
        <mxCell id="aNewC-5KHL_5yEbfK1jK-139" value="Station" style="shape=table;startSize=30;container=1;collapsible=1;childLayout=tableLayout;fixedRows=1;rowLines=0;fontStyle=1;align=center;resizeLast=1;html=1;" parent="1" vertex="1">
          <mxGeometry x="690" y="670" width="220" height="120" as="geometry" />
        </mxCell>
        <mxCell id="aNewC-5KHL_5yEbfK1jK-140" value="" style="shape=tableRow;horizontal=0;startSize=0;swimlaneHead=0;swimlaneBody=0;fillColor=none;collapsible=0;dropTarget=0;points=[[0,0.5],[1,0.5]];portConstraint=eastwest;top=0;left=0;right=0;bottom=1;" parent="aNewC-5KHL_5yEbfK1jK-139" vertex="1">
          <mxGeometry y="30" width="220" height="30" as="geometry" />
        </mxCell>
        <mxCell id="aNewC-5KHL_5yEbfK1jK-141" value="PK" style="shape=partialRectangle;connectable=0;fillColor=none;top=0;left=0;bottom=0;right=0;fontStyle=1;overflow=hidden;whiteSpace=wrap;html=1;" parent="aNewC-5KHL_5yEbfK1jK-140" vertex="1">
          <mxGeometry width="30" height="30" as="geometry">
            <mxRectangle width="30" height="30" as="alternateBounds" />
          </mxGeometry>
        </mxCell>
        <mxCell id="aNewC-5KHL_5yEbfK1jK-142" value="ID_Station&lt;span style=&quot;white-space: pre;&quot;&gt;&#x9;&lt;/span&gt;&lt;span style=&quot;white-space: pre;&quot;&gt;&#x9;&lt;/span&gt;int" style="shape=partialRectangle;connectable=0;fillColor=none;top=0;left=0;bottom=0;right=0;align=left;spacingLeft=6;fontStyle=5;overflow=hidden;whiteSpace=wrap;html=1;" parent="aNewC-5KHL_5yEbfK1jK-140" vertex="1">
          <mxGeometry x="30" width="190" height="30" as="geometry">
            <mxRectangle width="190" height="30" as="alternateBounds" />
          </mxGeometry>
        </mxCell>
        <mxCell id="aNewC-5KHL_5yEbfK1jK-143" value="" style="shape=tableRow;horizontal=0;startSize=0;swimlaneHead=0;swimlaneBody=0;fillColor=none;collapsible=0;dropTarget=0;points=[[0,0.5],[1,0.5]];portConstraint=eastwest;top=0;left=0;right=0;bottom=0;" parent="aNewC-5KHL_5yEbfK1jK-139" vertex="1">
          <mxGeometry y="60" width="220" height="30" as="geometry" />
        </mxCell>
        <mxCell id="aNewC-5KHL_5yEbfK1jK-144" value="" style="shape=partialRectangle;connectable=0;fillColor=none;top=0;left=0;bottom=0;right=0;editable=1;overflow=hidden;whiteSpace=wrap;html=1;" parent="aNewC-5KHL_5yEbfK1jK-143" vertex="1">
          <mxGeometry width="30" height="30" as="geometry">
            <mxRectangle width="30" height="30" as="alternateBounds" />
          </mxGeometry>
        </mxCell>
        <mxCell id="aNewC-5KHL_5yEbfK1jK-145" value="Station_Name&lt;span style=&quot;white-space: pre;&quot;&gt;&#x9;&lt;/span&gt;&lt;span style=&quot;white-space: pre;&quot;&gt;&#x9;&lt;/span&gt;Varchar(255)" style="shape=partialRectangle;connectable=0;fillColor=none;top=0;left=0;bottom=0;right=0;align=left;spacingLeft=6;overflow=hidden;whiteSpace=wrap;html=1;" parent="aNewC-5KHL_5yEbfK1jK-143" vertex="1">
          <mxGeometry x="30" width="190" height="30" as="geometry">
            <mxRectangle width="190" height="30" as="alternateBounds" />
          </mxGeometry>
        </mxCell>
        <mxCell id="aNewC-5KHL_5yEbfK1jK-146" value="" style="shape=tableRow;horizontal=0;startSize=0;swimlaneHead=0;swimlaneBody=0;fillColor=none;collapsible=0;dropTarget=0;points=[[0,0.5],[1,0.5]];portConstraint=eastwest;top=0;left=0;right=0;bottom=0;" parent="aNewC-5KHL_5yEbfK1jK-139" vertex="1">
          <mxGeometry y="90" width="220" height="30" as="geometry" />
        </mxCell>
        <mxCell id="aNewC-5KHL_5yEbfK1jK-147" value="" style="shape=partialRectangle;connectable=0;fillColor=none;top=0;left=0;bottom=0;right=0;editable=1;overflow=hidden;whiteSpace=wrap;html=1;" parent="aNewC-5KHL_5yEbfK1jK-146" vertex="1">
          <mxGeometry width="30" height="30" as="geometry">
            <mxRectangle width="30" height="30" as="alternateBounds" />
          </mxGeometry>
        </mxCell>
        <mxCell id="aNewC-5KHL_5yEbfK1jK-148" value="Location&lt;span style=&quot;white-space: pre;&quot;&gt;&#x9;&lt;/span&gt;&lt;span style=&quot;white-space: pre;&quot;&gt;&#x9;&lt;/span&gt;&lt;span style=&quot;white-space: pre;&quot;&gt;&#x9;&lt;/span&gt;Varchar(255)" style="shape=partialRectangle;connectable=0;fillColor=none;top=0;left=0;bottom=0;right=0;align=left;spacingLeft=6;overflow=hidden;whiteSpace=wrap;html=1;" parent="aNewC-5KHL_5yEbfK1jK-146" vertex="1">
          <mxGeometry x="30" width="190" height="30" as="geometry">
            <mxRectangle width="190" height="30" as="alternateBounds" />
          </mxGeometry>
        </mxCell>
        <mxCell id="aNewC-5KHL_5yEbfK1jK-152" value="Admin" style="shape=table;startSize=30;container=1;collapsible=1;childLayout=tableLayout;fixedRows=1;rowLines=0;fontStyle=1;align=center;resizeLast=1;html=1;" parent="1" vertex="1">
          <mxGeometry x="1000" y="90" width="240" height="180" as="geometry" />
        </mxCell>
        <mxCell id="aNewC-5KHL_5yEbfK1jK-153" value="" style="shape=tableRow;horizontal=0;startSize=0;swimlaneHead=0;swimlaneBody=0;fillColor=none;collapsible=0;dropTarget=0;points=[[0,0.5],[1,0.5]];portConstraint=eastwest;top=0;left=0;right=0;bottom=1;" parent="aNewC-5KHL_5yEbfK1jK-152" vertex="1">
          <mxGeometry y="30" width="240" height="30" as="geometry" />
        </mxCell>
        <mxCell id="aNewC-5KHL_5yEbfK1jK-154" value="PK" style="shape=partialRectangle;connectable=0;fillColor=none;top=0;left=0;bottom=0;right=0;fontStyle=1;overflow=hidden;whiteSpace=wrap;html=1;" parent="aNewC-5KHL_5yEbfK1jK-153" vertex="1">
          <mxGeometry width="30" height="30" as="geometry">
            <mxRectangle width="30" height="30" as="alternateBounds" />
          </mxGeometry>
        </mxCell>
        <mxCell id="aNewC-5KHL_5yEbfK1jK-155" value="ID_Admin&lt;span style=&quot;white-space: pre;&quot;&gt;&#x9;&lt;/span&gt;&lt;span style=&quot;white-space: pre;&quot;&gt;&#x9;&lt;/span&gt;int" style="shape=partialRectangle;connectable=0;fillColor=none;top=0;left=0;bottom=0;right=0;align=left;spacingLeft=6;fontStyle=5;overflow=hidden;whiteSpace=wrap;html=1;" parent="aNewC-5KHL_5yEbfK1jK-153" vertex="1">
          <mxGeometry x="30" width="210" height="30" as="geometry">
            <mxRectangle width="210" height="30" as="alternateBounds" />
          </mxGeometry>
        </mxCell>
        <mxCell id="-9Uau6vNzZhuiOq7XttB-5" value="" style="shape=tableRow;horizontal=0;startSize=0;swimlaneHead=0;swimlaneBody=0;fillColor=none;collapsible=0;dropTarget=0;points=[[0,0.5],[1,0.5]];portConstraint=eastwest;top=0;left=0;right=0;bottom=0;" vertex="1" parent="aNewC-5KHL_5yEbfK1jK-152">
          <mxGeometry y="60" width="240" height="30" as="geometry" />
        </mxCell>
        <mxCell id="-9Uau6vNzZhuiOq7XttB-6" value="FK" style="shape=partialRectangle;connectable=0;fillColor=none;top=0;left=0;bottom=0;right=0;editable=1;overflow=hidden;whiteSpace=wrap;html=1;" vertex="1" parent="-9Uau6vNzZhuiOq7XttB-5">
          <mxGeometry width="30" height="30" as="geometry">
            <mxRectangle width="30" height="30" as="alternateBounds" />
          </mxGeometry>
        </mxCell>
        <mxCell id="-9Uau6vNzZhuiOq7XttB-7" value="ID_Booking&lt;span style=&quot;white-space: pre;&quot;&gt;&#x9;&lt;/span&gt;&lt;span style=&quot;white-space: pre;&quot;&gt;&#x9;&lt;/span&gt;int" style="shape=partialRectangle;connectable=0;fillColor=none;top=0;left=0;bottom=0;right=0;align=left;spacingLeft=6;overflow=hidden;whiteSpace=wrap;html=1;" vertex="1" parent="-9Uau6vNzZhuiOq7XttB-5">
          <mxGeometry x="30" width="210" height="30" as="geometry">
            <mxRectangle width="210" height="30" as="alternateBounds" />
          </mxGeometry>
        </mxCell>
        <mxCell id="aNewC-5KHL_5yEbfK1jK-156" value="" style="shape=tableRow;horizontal=0;startSize=0;swimlaneHead=0;swimlaneBody=0;fillColor=none;collapsible=0;dropTarget=0;points=[[0,0.5],[1,0.5]];portConstraint=eastwest;top=0;left=0;right=0;bottom=0;" parent="aNewC-5KHL_5yEbfK1jK-152" vertex="1">
          <mxGeometry y="90" width="240" height="30" as="geometry" />
        </mxCell>
        <mxCell id="aNewC-5KHL_5yEbfK1jK-157" value="" style="shape=partialRectangle;connectable=0;fillColor=none;top=0;left=0;bottom=0;right=0;editable=1;overflow=hidden;whiteSpace=wrap;html=1;" parent="aNewC-5KHL_5yEbfK1jK-156" vertex="1">
          <mxGeometry width="30" height="30" as="geometry">
            <mxRectangle width="30" height="30" as="alternateBounds" />
          </mxGeometry>
        </mxCell>
        <mxCell id="aNewC-5KHL_5yEbfK1jK-158" value="Name_Admin&lt;span style=&quot;white-space: pre;&quot;&gt;&#x9;&lt;/span&gt;&lt;span style=&quot;white-space: pre;&quot;&gt;&#x9;&lt;/span&gt;VARCHAR(255)" style="shape=partialRectangle;connectable=0;fillColor=none;top=0;left=0;bottom=0;right=0;align=left;spacingLeft=6;overflow=hidden;whiteSpace=wrap;html=1;" parent="aNewC-5KHL_5yEbfK1jK-156" vertex="1">
          <mxGeometry x="30" width="210" height="30" as="geometry">
            <mxRectangle width="210" height="30" as="alternateBounds" />
          </mxGeometry>
        </mxCell>
        <mxCell id="aNewC-5KHL_5yEbfK1jK-159" value="" style="shape=tableRow;horizontal=0;startSize=0;swimlaneHead=0;swimlaneBody=0;fillColor=none;collapsible=0;dropTarget=0;points=[[0,0.5],[1,0.5]];portConstraint=eastwest;top=0;left=0;right=0;bottom=0;" parent="aNewC-5KHL_5yEbfK1jK-152" vertex="1">
          <mxGeometry y="120" width="240" height="30" as="geometry" />
        </mxCell>
        <mxCell id="aNewC-5KHL_5yEbfK1jK-160" value="" style="shape=partialRectangle;connectable=0;fillColor=none;top=0;left=0;bottom=0;right=0;editable=1;overflow=hidden;whiteSpace=wrap;html=1;" parent="aNewC-5KHL_5yEbfK1jK-159" vertex="1">
          <mxGeometry width="30" height="30" as="geometry">
            <mxRectangle width="30" height="30" as="alternateBounds" />
          </mxGeometry>
        </mxCell>
        <mxCell id="aNewC-5KHL_5yEbfK1jK-161" value="Username&lt;span style=&quot;white-space: pre;&quot;&gt;&#x9;&lt;/span&gt;&lt;span style=&quot;white-space: pre;&quot;&gt;&#x9;&lt;/span&gt;VARCHAR(50)" style="shape=partialRectangle;connectable=0;fillColor=none;top=0;left=0;bottom=0;right=0;align=left;spacingLeft=6;overflow=hidden;whiteSpace=wrap;html=1;" parent="aNewC-5KHL_5yEbfK1jK-159" vertex="1">
          <mxGeometry x="30" width="210" height="30" as="geometry">
            <mxRectangle width="210" height="30" as="alternateBounds" />
          </mxGeometry>
        </mxCell>
        <mxCell id="aNewC-5KHL_5yEbfK1jK-162" value="" style="shape=tableRow;horizontal=0;startSize=0;swimlaneHead=0;swimlaneBody=0;fillColor=none;collapsible=0;dropTarget=0;points=[[0,0.5],[1,0.5]];portConstraint=eastwest;top=0;left=0;right=0;bottom=0;" parent="aNewC-5KHL_5yEbfK1jK-152" vertex="1">
          <mxGeometry y="150" width="240" height="30" as="geometry" />
        </mxCell>
        <mxCell id="aNewC-5KHL_5yEbfK1jK-163" value="" style="shape=partialRectangle;connectable=0;fillColor=none;top=0;left=0;bottom=0;right=0;editable=1;overflow=hidden;whiteSpace=wrap;html=1;" parent="aNewC-5KHL_5yEbfK1jK-162" vertex="1">
          <mxGeometry width="30" height="30" as="geometry">
            <mxRectangle width="30" height="30" as="alternateBounds" />
          </mxGeometry>
        </mxCell>
        <mxCell id="aNewC-5KHL_5yEbfK1jK-164" value="Password&lt;span style=&quot;white-space: pre;&quot;&gt;&#x9;&lt;/span&gt;&lt;span style=&quot;white-space: pre;&quot;&gt;&#x9;&lt;/span&gt;VARCHAR(255)" style="shape=partialRectangle;connectable=0;fillColor=none;top=0;left=0;bottom=0;right=0;align=left;spacingLeft=6;overflow=hidden;whiteSpace=wrap;html=1;" parent="aNewC-5KHL_5yEbfK1jK-162" vertex="1">
          <mxGeometry x="30" width="210" height="30" as="geometry">
            <mxRectangle width="210" height="30" as="alternateBounds" />
          </mxGeometry>
        </mxCell>
        <mxCell id="aNewC-5KHL_5yEbfK1jK-166" value="" style="edgeStyle=entityRelationEdgeStyle;fontSize=12;html=1;endArrow=ERoneToMany;rounded=0;exitX=1;exitY=0.5;exitDx=0;exitDy=0;entryX=0;entryY=0.5;entryDx=0;entryDy=0;" parent="1" source="aNewC-5KHL_5yEbfK1jK-2" target="aNewC-5KHL_5yEbfK1jK-93" edge="1">
          <mxGeometry width="100" height="100" relative="1" as="geometry">
            <mxPoint x="810" y="470" as="sourcePoint" />
            <mxPoint x="910" y="370" as="targetPoint" />
          </mxGeometry>
        </mxCell>
        <mxCell id="aNewC-5KHL_5yEbfK1jK-167" value="" style="edgeStyle=entityRelationEdgeStyle;fontSize=12;html=1;endArrow=ERoneToMany;rounded=0;entryX=0.996;entryY=0.233;entryDx=0;entryDy=0;exitX=0;exitY=0.5;exitDx=0;exitDy=0;entryPerimeter=0;" parent="1" source="aNewC-5KHL_5yEbfK1jK-37" target="aNewC-5KHL_5yEbfK1jK-96" edge="1">
          <mxGeometry width="100" height="100" relative="1" as="geometry">
            <mxPoint x="970" y="550" as="sourcePoint" />
            <mxPoint x="1070" y="450" as="targetPoint" />
          </mxGeometry>
        </mxCell>
        <mxCell id="-9Uau6vNzZhuiOq7XttB-2" value="" style="edgeStyle=entityRelationEdgeStyle;fontSize=12;html=1;endArrow=ERoneToMany;rounded=0;" edge="1" parent="1" source="aNewC-5KHL_5yEbfK1jK-118" target="aNewC-5KHL_5yEbfK1jK-90">
          <mxGeometry width="100" height="100" relative="1" as="geometry">
            <mxPoint x="601" y="730" as="sourcePoint" />
            <mxPoint x="540" y="339.9999999999999" as="targetPoint" />
          </mxGeometry>
        </mxCell>
        <mxCell id="-9Uau6vNzZhuiOq7XttB-3" value="" style="edgeStyle=entityRelationEdgeStyle;fontSize=12;html=1;endArrow=ERoneToMany;rounded=0;" edge="1" parent="1" source="aNewC-5KHL_5yEbfK1jK-140" target="aNewC-5KHL_5yEbfK1jK-49">
          <mxGeometry width="100" height="100" relative="1" as="geometry">
            <mxPoint x="830" y="540" as="sourcePoint" />
            <mxPoint x="930" y="440" as="targetPoint" />
          </mxGeometry>
        </mxCell>
        <mxCell id="-9Uau6vNzZhuiOq7XttB-4" value="" style="edgeStyle=entityRelationEdgeStyle;fontSize=12;html=1;endArrow=ERoneToMany;rounded=0;entryX=0;entryY=0.5;entryDx=0;entryDy=0;" edge="1" parent="1" source="aNewC-5KHL_5yEbfK1jK-140" target="aNewC-5KHL_5yEbfK1jK-52">
          <mxGeometry width="100" height="100" relative="1" as="geometry">
            <mxPoint x="550" y="555" as="sourcePoint" />
            <mxPoint x="1080" y="335" as="targetPoint" />
          </mxGeometry>
        </mxCell>
        <mxCell id="-9Uau6vNzZhuiOq7XttB-8" value="" style="edgeStyle=entityRelationEdgeStyle;fontSize=12;html=1;endArrow=ERoneToMany;rounded=0;exitX=0;exitY=0.5;exitDx=0;exitDy=0;" edge="1" parent="1" source="-9Uau6vNzZhuiOq7XttB-5" target="aNewC-5KHL_5yEbfK1jK-90">
          <mxGeometry width="100" height="100" relative="1" as="geometry">
            <mxPoint x="1120" y="540" as="sourcePoint" />
            <mxPoint x="1220" y="440" as="targetPoint" />
          </mxGeometry>
        </mxCell>
      </root>
    </mxGraphModel>
  </diagram>
  <diagram id="RnC54XA71f8sS0LnI9RV" name="UseCase">
    <mxGraphModel dx="1728" dy="1016" grid="1" gridSize="10" guides="1" tooltips="1" connect="1" arrows="1" fold="1" page="1" pageScale="1" pageWidth="850" pageHeight="1100" math="0" shadow="0">
      <root>
        <mxCell id="0" />
        <mxCell id="1" parent="0" />
        <mxCell id="CaS524MaxykVnZgtaxcf-1" value="Aplikasi Pemesanan Tiket Kereta Api" style="shape=umlFrame;whiteSpace=wrap;html=1;pointerEvents=0;width=120;height=30;" vertex="1" parent="1">
          <mxGeometry x="150" y="70" width="640" height="950" as="geometry" />
        </mxCell>
        <mxCell id="CaS524MaxykVnZgtaxcf-2" style="rounded=0;orthogonalLoop=1;jettySize=auto;html=1;endArrow=none;endFill=0;" edge="1" parent="1" target="CaS524MaxykVnZgtaxcf-9">
          <mxGeometry relative="1" as="geometry">
            <mxPoint x="70" y="180" as="sourcePoint" />
          </mxGeometry>
        </mxCell>
        <mxCell id="CaS524MaxykVnZgtaxcf-3" value="User" style="shape=umlActor;verticalLabelPosition=bottom;verticalAlign=top;html=1;" vertex="1" parent="1">
          <mxGeometry x="40" y="150" width="30" height="60" as="geometry" />
        </mxCell>
        <mxCell id="CaS524MaxykVnZgtaxcf-4" value="Admin" style="shape=umlActor;verticalLabelPosition=bottom;verticalAlign=top;html=1;" vertex="1" parent="1">
          <mxGeometry x="40" y="610" width="30" height="60" as="geometry" />
        </mxCell>
        <mxCell id="CaS524MaxykVnZgtaxcf-5" value="Login" style="ellipse;whiteSpace=wrap;html=1;" vertex="1" parent="1">
          <mxGeometry x="660" y="390" width="100" height="50" as="geometry" />
        </mxCell>
        <mxCell id="CaS524MaxykVnZgtaxcf-6" style="rounded=0;orthogonalLoop=1;jettySize=auto;html=1;edgeStyle=orthogonalEdgeStyle;dashed=1;endArrow=open;endFill=0;exitX=0.5;exitY=0;exitDx=0;exitDy=0;" edge="1" parent="1" source="CaS524MaxykVnZgtaxcf-8">
          <mxGeometry relative="1" as="geometry">
            <mxPoint x="692.3199999999999" y="607.32" as="sourcePoint" />
            <mxPoint x="730" y="440" as="targetPoint" />
            <Array as="points">
              <mxPoint x="710" y="490" />
              <mxPoint x="730" y="490" />
            </Array>
          </mxGeometry>
        </mxCell>
        <mxCell id="CaS524MaxykVnZgtaxcf-7" value="&amp;lt;&amp;lt;include&amp;gt;&amp;gt;" style="edgeLabel;html=1;align=center;verticalAlign=middle;resizable=0;points=[];" connectable="0" vertex="1" parent="CaS524MaxykVnZgtaxcf-6">
          <mxGeometry x="0.1721" y="2" relative="1" as="geometry">
            <mxPoint y="26" as="offset" />
          </mxGeometry>
        </mxCell>
        <mxCell id="CaS524MaxykVnZgtaxcf-8" value="Logout" style="ellipse;whiteSpace=wrap;html=1;" vertex="1" parent="1">
          <mxGeometry x="660" y="621" width="100" height="50" as="geometry" />
        </mxCell>
        <mxCell id="CaS524MaxykVnZgtaxcf-9" value="Create Account" style="ellipse;whiteSpace=wrap;html=1;" vertex="1" parent="1">
          <mxGeometry x="270" y="100" width="100" height="50" as="geometry" />
        </mxCell>
        <mxCell id="CaS524MaxykVnZgtaxcf-10" value="View Train Schedules" style="ellipse;whiteSpace=wrap;html=1;" vertex="1" parent="1">
          <mxGeometry x="270" y="170" width="100" height="50" as="geometry" />
        </mxCell>
        <mxCell id="CaS524MaxykVnZgtaxcf-11" value="Dashboard" style="ellipse;whiteSpace=wrap;html=1;" vertex="1" parent="1">
          <mxGeometry x="270" y="581" width="100" height="50" as="geometry" />
        </mxCell>
        <mxCell id="CaS524MaxykVnZgtaxcf-12" value="View Sales Reports" style="ellipse;whiteSpace=wrap;html=1;" vertex="1" parent="1">
          <mxGeometry x="270" y="651" width="100" height="50" as="geometry" />
        </mxCell>
        <mxCell id="CaS524MaxykVnZgtaxcf-13" value="View Order History" style="ellipse;whiteSpace=wrap;html=1;" vertex="1" parent="1">
          <mxGeometry x="270" y="510" width="100" height="50" as="geometry" />
        </mxCell>
        <mxCell id="CaS524MaxykVnZgtaxcf-14" value="Looking for Tickets" style="ellipse;whiteSpace=wrap;html=1;" vertex="1" parent="1">
          <mxGeometry x="270" y="240" width="100" height="50" as="geometry" />
        </mxCell>
        <mxCell id="CaS524MaxykVnZgtaxcf-15" style="edgeStyle=orthogonalEdgeStyle;rounded=0;orthogonalLoop=1;jettySize=auto;html=1;endArrow=open;endFill=0;dashed=1;" edge="1" parent="1" source="CaS524MaxykVnZgtaxcf-17" target="CaS524MaxykVnZgtaxcf-18">
          <mxGeometry relative="1" as="geometry" />
        </mxCell>
        <mxCell id="CaS524MaxykVnZgtaxcf-16" value="&amp;lt;&amp;lt;include&amp;gt;&amp;gt;" style="edgeLabel;html=1;align=center;verticalAlign=middle;resizable=0;points=[];" connectable="0" vertex="1" parent="CaS524MaxykVnZgtaxcf-15">
          <mxGeometry x="-0.2929" y="1" relative="1" as="geometry">
            <mxPoint as="offset" />
          </mxGeometry>
        </mxCell>
        <mxCell id="CaS524MaxykVnZgtaxcf-17" value="Paying Tickets" style="ellipse;whiteSpace=wrap;html=1;" vertex="1" parent="1">
          <mxGeometry x="270" y="410" width="100" height="50" as="geometry" />
        </mxCell>
        <mxCell id="CaS524MaxykVnZgtaxcf-18" value="Book Tickets" style="ellipse;whiteSpace=wrap;html=1;" vertex="1" parent="1">
          <mxGeometry x="270" y="310" width="100" height="50" as="geometry" />
        </mxCell>
        <mxCell id="CaS524MaxykVnZgtaxcf-19" style="edgeStyle=orthogonalEdgeStyle;rounded=0;orthogonalLoop=1;jettySize=auto;html=1;entryX=1;entryY=0.5;entryDx=0;entryDy=0;endArrow=open;endFill=0;dashed=1;" edge="1" parent="1" source="CaS524MaxykVnZgtaxcf-21" target="CaS524MaxykVnZgtaxcf-14">
          <mxGeometry relative="1" as="geometry" />
        </mxCell>
        <mxCell id="CaS524MaxykVnZgtaxcf-20" value="&amp;lt;&amp;lt;extends&amp;gt;" style="edgeLabel;html=1;align=center;verticalAlign=middle;resizable=0;points=[];" connectable="0" vertex="1" parent="CaS524MaxykVnZgtaxcf-19">
          <mxGeometry x="0.1619" y="-2" relative="1" as="geometry">
            <mxPoint x="-1" as="offset" />
          </mxGeometry>
        </mxCell>
        <mxCell id="CaS524MaxykVnZgtaxcf-21" value="Cari Tiket" style="ellipse;whiteSpace=wrap;html=1;" vertex="1" parent="1">
          <mxGeometry x="430" y="280" width="80" height="40" as="geometry" />
        </mxCell>
        <mxCell id="CaS524MaxykVnZgtaxcf-22" style="edgeStyle=orthogonalEdgeStyle;rounded=0;orthogonalLoop=1;jettySize=auto;html=1;endArrow=open;endFill=0;dashed=1;" edge="1" parent="1" source="CaS524MaxykVnZgtaxcf-24" target="CaS524MaxykVnZgtaxcf-10">
          <mxGeometry relative="1" as="geometry" />
        </mxCell>
        <mxCell id="CaS524MaxykVnZgtaxcf-23" value="&amp;lt;&amp;lt;extends&amp;gt;&amp;gt;" style="edgeLabel;html=1;align=center;verticalAlign=middle;resizable=0;points=[];" connectable="0" vertex="1" parent="CaS524MaxykVnZgtaxcf-22">
          <mxGeometry x="0.1537" y="-3" relative="1" as="geometry">
            <mxPoint y="-1" as="offset" />
          </mxGeometry>
        </mxCell>
        <mxCell id="CaS524MaxykVnZgtaxcf-24" value="Cetak Tiket" style="ellipse;whiteSpace=wrap;html=1;" vertex="1" parent="1">
          <mxGeometry x="440" y="210" width="80" height="40" as="geometry" />
        </mxCell>
        <mxCell id="CaS524MaxykVnZgtaxcf-25" value="Station" style="ellipse;whiteSpace=wrap;html=1;" vertex="1" parent="1">
          <mxGeometry x="270" y="721" width="100" height="50" as="geometry" />
        </mxCell>
        <mxCell id="CaS524MaxykVnZgtaxcf-26" value="Train" style="ellipse;whiteSpace=wrap;html=1;" vertex="1" parent="1">
          <mxGeometry x="270" y="811" width="100" height="50" as="geometry" />
        </mxCell>
        <mxCell id="CaS524MaxykVnZgtaxcf-27" value="Add" style="ellipse;whiteSpace=wrap;html=1;" vertex="1" parent="1">
          <mxGeometry x="410" y="651" width="60" height="30" as="geometry" />
        </mxCell>
        <mxCell id="CaS524MaxykVnZgtaxcf-28" value="Edit" style="ellipse;whiteSpace=wrap;html=1;" vertex="1" parent="1">
          <mxGeometry x="410" y="691" width="60" height="30" as="geometry" />
        </mxCell>
        <mxCell id="CaS524MaxykVnZgtaxcf-29" value="Delete" style="ellipse;whiteSpace=wrap;html=1;" vertex="1" parent="1">
          <mxGeometry x="410" y="731" width="60" height="30" as="geometry" />
        </mxCell>
        <mxCell id="CaS524MaxykVnZgtaxcf-30" value="Search" style="ellipse;whiteSpace=wrap;html=1;" vertex="1" parent="1">
          <mxGeometry x="410" y="771" width="60" height="30" as="geometry" />
        </mxCell>
        <mxCell id="CaS524MaxykVnZgtaxcf-31" value="" style="endArrow=block;endSize=9;endFill=0;html=1;rounded=0;exitX=0;exitY=0.5;exitDx=0;exitDy=0;entryX=0.997;entryY=0.662;entryDx=0;entryDy=0;entryPerimeter=0;" edge="1" parent="1" source="CaS524MaxykVnZgtaxcf-29" target="CaS524MaxykVnZgtaxcf-25">
          <mxGeometry width="160" relative="1" as="geometry">
            <mxPoint x="160" y="871" as="sourcePoint" />
            <mxPoint x="320" y="871" as="targetPoint" />
          </mxGeometry>
        </mxCell>
        <mxCell id="CaS524MaxykVnZgtaxcf-32" value="" style="endArrow=block;endSize=9;endFill=0;html=1;rounded=0;exitX=0;exitY=0.5;exitDx=0;exitDy=0;entryX=1;entryY=0;entryDx=0;entryDy=0;" edge="1" parent="1" source="CaS524MaxykVnZgtaxcf-27" target="CaS524MaxykVnZgtaxcf-25">
          <mxGeometry width="160" relative="1" as="geometry">
            <mxPoint x="420" y="826" as="sourcePoint" />
            <mxPoint x="357" y="777" as="targetPoint" />
          </mxGeometry>
        </mxCell>
        <mxCell id="CaS524MaxykVnZgtaxcf-33" value="" style="endArrow=block;endSize=9;endFill=0;html=1;rounded=0;entryX=1;entryY=0;entryDx=0;entryDy=0;" edge="1" parent="1" source="CaS524MaxykVnZgtaxcf-28">
          <mxGeometry width="160" relative="1" as="geometry">
            <mxPoint x="420" y="706" as="sourcePoint" />
            <mxPoint x="365" y="738" as="targetPoint" />
          </mxGeometry>
        </mxCell>
        <mxCell id="CaS524MaxykVnZgtaxcf-34" style="rounded=0;orthogonalLoop=1;jettySize=auto;html=1;entryX=1;entryY=1;entryDx=0;entryDy=0;endArrow=open;endFill=0;dashed=1;exitX=0;exitY=0.5;exitDx=0;exitDy=0;" edge="1" parent="1" source="CaS524MaxykVnZgtaxcf-30" target="CaS524MaxykVnZgtaxcf-25">
          <mxGeometry relative="1" as="geometry">
            <mxPoint x="610" y="786" as="sourcePoint" />
            <mxPoint x="550" y="751" as="targetPoint" />
          </mxGeometry>
        </mxCell>
        <mxCell id="CaS524MaxykVnZgtaxcf-35" value="&amp;lt;&amp;lt;extends&amp;gt;" style="edgeLabel;html=1;align=center;verticalAlign=middle;resizable=0;points=[];fontSize=8;" connectable="0" vertex="1" parent="CaS524MaxykVnZgtaxcf-34">
          <mxGeometry x="0.1619" y="-2" relative="1" as="geometry">
            <mxPoint x="11" as="offset" />
          </mxGeometry>
        </mxCell>
        <mxCell id="CaS524MaxykVnZgtaxcf-36" value="Add" style="ellipse;whiteSpace=wrap;html=1;" vertex="1" parent="1">
          <mxGeometry x="410" y="811" width="60" height="30" as="geometry" />
        </mxCell>
        <mxCell id="CaS524MaxykVnZgtaxcf-37" value="Edit" style="ellipse;whiteSpace=wrap;html=1;" vertex="1" parent="1">
          <mxGeometry x="410" y="851" width="60" height="30" as="geometry" />
        </mxCell>
        <mxCell id="CaS524MaxykVnZgtaxcf-38" value="Search" style="ellipse;whiteSpace=wrap;html=1;" vertex="1" parent="1">
          <mxGeometry x="410" y="931" width="60" height="30" as="geometry" />
        </mxCell>
        <mxCell id="CaS524MaxykVnZgtaxcf-39" value="Delete" style="ellipse;whiteSpace=wrap;html=1;" vertex="1" parent="1">
          <mxGeometry x="410" y="891" width="60" height="30" as="geometry" />
        </mxCell>
        <mxCell id="CaS524MaxykVnZgtaxcf-40" value="" style="endArrow=block;endSize=9;endFill=0;html=1;rounded=0;exitX=0;exitY=0.264;exitDx=0;exitDy=0;entryX=1;entryY=1;entryDx=0;entryDy=0;exitPerimeter=0;" edge="1" parent="1" source="CaS524MaxykVnZgtaxcf-39" target="CaS524MaxykVnZgtaxcf-26">
          <mxGeometry width="160" relative="1" as="geometry">
            <mxPoint x="420" y="796" as="sourcePoint" />
            <mxPoint x="352" y="779" as="targetPoint" />
          </mxGeometry>
        </mxCell>
        <mxCell id="CaS524MaxykVnZgtaxcf-41" value="" style="endArrow=block;endSize=9;endFill=0;html=1;rounded=0;exitX=0.018;exitY=0.366;exitDx=0;exitDy=0;entryX=1;entryY=0;entryDx=0;entryDy=0;exitPerimeter=0;" edge="1" parent="1" source="CaS524MaxykVnZgtaxcf-36" target="CaS524MaxykVnZgtaxcf-26">
          <mxGeometry width="160" relative="1" as="geometry">
            <mxPoint x="430" y="806" as="sourcePoint" />
            <mxPoint x="362" y="789" as="targetPoint" />
          </mxGeometry>
        </mxCell>
        <mxCell id="CaS524MaxykVnZgtaxcf-42" value="" style="endArrow=block;endSize=9;endFill=0;html=1;rounded=0;exitX=-0.037;exitY=0.356;exitDx=0;exitDy=0;exitPerimeter=0;" edge="1" parent="1" source="CaS524MaxykVnZgtaxcf-37">
          <mxGeometry width="160" relative="1" as="geometry">
            <mxPoint x="421" y="832" as="sourcePoint" />
            <mxPoint x="370" y="831" as="targetPoint" />
          </mxGeometry>
        </mxCell>
        <mxCell id="CaS524MaxykVnZgtaxcf-43" style="rounded=0;orthogonalLoop=1;jettySize=auto;html=1;entryX=0.804;entryY=1.014;entryDx=0;entryDy=0;endArrow=open;endFill=0;dashed=1;entryPerimeter=0;" edge="1" parent="1" source="CaS524MaxykVnZgtaxcf-38" target="CaS524MaxykVnZgtaxcf-26">
          <mxGeometry relative="1" as="geometry">
            <mxPoint x="420" y="756" as="sourcePoint" />
            <mxPoint x="378" y="767" as="targetPoint" />
            <Array as="points">
              <mxPoint x="400" y="941" />
            </Array>
          </mxGeometry>
        </mxCell>
        <mxCell id="CaS524MaxykVnZgtaxcf-44" value="&amp;lt;&amp;lt;extends&amp;gt;" style="edgeLabel;html=1;align=center;verticalAlign=middle;resizable=0;points=[];fontSize=8;" connectable="0" vertex="1" parent="CaS524MaxykVnZgtaxcf-43">
          <mxGeometry x="0.1619" y="-2" relative="1" as="geometry">
            <mxPoint x="18" y="23" as="offset" />
          </mxGeometry>
        </mxCell>
        <mxCell id="CaS524MaxykVnZgtaxcf-45" style="edgeStyle=orthogonalEdgeStyle;rounded=0;orthogonalLoop=1;jettySize=auto;html=1;entryX=0;entryY=1;entryDx=0;entryDy=0;endArrow=open;endFill=0;dashed=1;exitX=0.97;exitY=0.424;exitDx=0;exitDy=0;exitPerimeter=0;" edge="1" parent="1" source="CaS524MaxykVnZgtaxcf-11" target="CaS524MaxykVnZgtaxcf-5">
          <mxGeometry relative="1" as="geometry">
            <mxPoint x="542" y="715" as="sourcePoint" />
            <mxPoint x="500" y="726" as="targetPoint" />
            <Array as="points">
              <mxPoint x="540" y="581" />
              <mxPoint x="540" y="433" />
            </Array>
          </mxGeometry>
        </mxCell>
        <mxCell id="CaS524MaxykVnZgtaxcf-46" value="&amp;lt;&amp;lt;include&amp;gt;&amp;gt;" style="edgeLabel;html=1;align=center;verticalAlign=middle;resizable=0;points=[];fontSize=10;" connectable="0" vertex="1" parent="CaS524MaxykVnZgtaxcf-45">
          <mxGeometry x="0.1619" y="-2" relative="1" as="geometry">
            <mxPoint x="8" y="-9" as="offset" />
          </mxGeometry>
        </mxCell>
        <mxCell id="CaS524MaxykVnZgtaxcf-49" style="edgeStyle=orthogonalEdgeStyle;rounded=0;orthogonalLoop=1;jettySize=auto;html=1;endArrow=open;endFill=0;dashed=1;exitX=1;exitY=0.5;exitDx=0;exitDy=0;entryX=0.2;entryY=0;entryDx=0;entryDy=0;entryPerimeter=0;" edge="1" parent="1" source="CaS524MaxykVnZgtaxcf-18" target="CaS524MaxykVnZgtaxcf-5">
          <mxGeometry relative="1" as="geometry">
            <mxPoint x="380" y="515" as="sourcePoint" />
            <mxPoint x="670" y="438" as="targetPoint" />
            <Array as="points" />
          </mxGeometry>
        </mxCell>
        <mxCell id="CaS524MaxykVnZgtaxcf-50" value="&amp;lt;&amp;lt;include&amp;gt;&amp;gt;" style="edgeLabel;html=1;align=center;verticalAlign=middle;resizable=0;points=[];fontSize=10;" connectable="0" vertex="1" parent="CaS524MaxykVnZgtaxcf-49">
          <mxGeometry x="0.1619" y="-2" relative="1" as="geometry">
            <mxPoint x="38" y="-2" as="offset" />
          </mxGeometry>
        </mxCell>
        <mxCell id="CaS524MaxykVnZgtaxcf-51" style="edgeStyle=orthogonalEdgeStyle;rounded=0;orthogonalLoop=1;jettySize=auto;html=1;endArrow=open;endFill=0;dashed=1;exitX=1;exitY=0;exitDx=0;exitDy=0;entryX=0.37;entryY=-0.087;entryDx=0;entryDy=0;entryPerimeter=0;" edge="1" parent="1" source="CaS524MaxykVnZgtaxcf-14" target="CaS524MaxykVnZgtaxcf-5">
          <mxGeometry relative="1" as="geometry">
            <mxPoint x="380" y="345" as="sourcePoint" />
            <mxPoint x="720" y="380" as="targetPoint" />
            <Array as="points">
              <mxPoint x="420" y="247" />
              <mxPoint x="420" y="260" />
              <mxPoint x="697" y="260" />
            </Array>
          </mxGeometry>
        </mxCell>
        <mxCell id="CaS524MaxykVnZgtaxcf-52" value="&amp;lt;&amp;lt;include&amp;gt;&amp;gt;" style="edgeLabel;html=1;align=center;verticalAlign=middle;resizable=0;points=[];fontSize=10;" connectable="0" vertex="1" parent="CaS524MaxykVnZgtaxcf-51">
          <mxGeometry x="0.1619" y="-2" relative="1" as="geometry">
            <mxPoint x="38" y="-2" as="offset" />
          </mxGeometry>
        </mxCell>
        <mxCell id="CaS524MaxykVnZgtaxcf-53" style="edgeStyle=orthogonalEdgeStyle;rounded=0;orthogonalLoop=1;jettySize=auto;html=1;entryX=0.263;entryY=0.9;entryDx=0;entryDy=0;endArrow=open;endFill=0;dashed=1;exitX=1;exitY=0.5;exitDx=0;exitDy=0;entryPerimeter=0;" edge="1" parent="1" source="CaS524MaxykVnZgtaxcf-12" target="CaS524MaxykVnZgtaxcf-5">
          <mxGeometry relative="1" as="geometry">
            <mxPoint x="377" y="591" as="sourcePoint" />
            <mxPoint x="685" y="443" as="targetPoint" />
            <Array as="points">
              <mxPoint x="370" y="610" />
              <mxPoint x="570" y="610" />
              <mxPoint x="570" y="460" />
              <mxPoint x="686" y="460" />
            </Array>
          </mxGeometry>
        </mxCell>
        <mxCell id="CaS524MaxykVnZgtaxcf-54" value="&amp;lt;&amp;lt;include&amp;gt;&amp;gt;" style="edgeLabel;html=1;align=center;verticalAlign=middle;resizable=0;points=[];fontSize=10;" connectable="0" vertex="1" parent="CaS524MaxykVnZgtaxcf-53">
          <mxGeometry x="0.1619" y="-2" relative="1" as="geometry">
            <mxPoint x="-2" y="-33" as="offset" />
          </mxGeometry>
        </mxCell>
        <mxCell id="CaS524MaxykVnZgtaxcf-55" style="edgeStyle=orthogonalEdgeStyle;rounded=0;orthogonalLoop=1;jettySize=auto;html=1;entryX=0.361;entryY=0.965;entryDx=0;entryDy=0;endArrow=open;endFill=0;dashed=1;entryPerimeter=0;exitX=0.5;exitY=0;exitDx=0;exitDy=0;" edge="1" parent="1" source="CaS524MaxykVnZgtaxcf-25" target="CaS524MaxykVnZgtaxcf-5">
          <mxGeometry relative="1" as="geometry">
            <mxPoint x="350" y="700" as="sourcePoint" />
            <mxPoint x="696" y="445" as="targetPoint" />
            <Array as="points">
              <mxPoint x="380" y="700" />
              <mxPoint x="380" y="620" />
              <mxPoint x="590" y="620" />
              <mxPoint x="590" y="470" />
              <mxPoint x="696" y="470" />
            </Array>
          </mxGeometry>
        </mxCell>
        <mxCell id="CaS524MaxykVnZgtaxcf-56" value="&amp;lt;&amp;lt;include&amp;gt;&amp;gt;" style="edgeLabel;html=1;align=center;verticalAlign=middle;resizable=0;points=[];fontSize=10;" connectable="0" vertex="1" parent="CaS524MaxykVnZgtaxcf-55">
          <mxGeometry x="0.1619" y="-2" relative="1" as="geometry">
            <mxPoint x="-2" y="-43" as="offset" />
          </mxGeometry>
        </mxCell>
        <mxCell id="CaS524MaxykVnZgtaxcf-57" style="edgeStyle=orthogonalEdgeStyle;rounded=0;orthogonalLoop=1;jettySize=auto;html=1;endArrow=open;endFill=0;dashed=1;exitX=0.5;exitY=1;exitDx=0;exitDy=0;entryX=0.456;entryY=0.999;entryDx=0;entryDy=0;entryPerimeter=0;" edge="1" parent="1" source="CaS524MaxykVnZgtaxcf-26" target="CaS524MaxykVnZgtaxcf-5">
          <mxGeometry relative="1" as="geometry">
            <mxPoint x="330" y="710" as="sourcePoint" />
            <mxPoint x="706" y="448" as="targetPoint" />
            <Array as="points">
              <mxPoint x="320" y="890" />
              <mxPoint x="330" y="890" />
              <mxPoint x="330" y="970" />
              <mxPoint x="600" y="970" />
              <mxPoint x="600" y="480" />
              <mxPoint x="706" y="480" />
            </Array>
          </mxGeometry>
        </mxCell>
        <mxCell id="CaS524MaxykVnZgtaxcf-58" value="&amp;lt;&amp;lt;include&amp;gt;&amp;gt;" style="edgeLabel;html=1;align=center;verticalAlign=middle;resizable=0;points=[];fontSize=10;" connectable="0" vertex="1" parent="CaS524MaxykVnZgtaxcf-57">
          <mxGeometry x="0.1619" y="-2" relative="1" as="geometry">
            <mxPoint x="-2" y="-120" as="offset" />
          </mxGeometry>
        </mxCell>
        <mxCell id="CaS524MaxykVnZgtaxcf-59" style="rounded=0;orthogonalLoop=1;jettySize=auto;html=1;endArrow=none;endFill=0;entryX=0.03;entryY=0.558;entryDx=0;entryDy=0;entryPerimeter=0;" edge="1" parent="1" target="CaS524MaxykVnZgtaxcf-10">
          <mxGeometry relative="1" as="geometry">
            <mxPoint x="70" y="180" as="sourcePoint" />
            <mxPoint x="284" y="145" as="targetPoint" />
          </mxGeometry>
        </mxCell>
        <mxCell id="CaS524MaxykVnZgtaxcf-60" style="rounded=0;orthogonalLoop=1;jettySize=auto;html=1;endArrow=none;endFill=0;entryX=0;entryY=0.5;entryDx=0;entryDy=0;" edge="1" parent="1" target="CaS524MaxykVnZgtaxcf-14">
          <mxGeometry relative="1" as="geometry">
            <mxPoint x="70" y="180" as="sourcePoint" />
            <mxPoint x="283" y="208" as="targetPoint" />
          </mxGeometry>
        </mxCell>
        <mxCell id="CaS524MaxykVnZgtaxcf-61" style="rounded=0;orthogonalLoop=1;jettySize=auto;html=1;endArrow=none;endFill=0;entryX=0;entryY=0.5;entryDx=0;entryDy=0;" edge="1" parent="1" target="CaS524MaxykVnZgtaxcf-18">
          <mxGeometry relative="1" as="geometry">
            <mxPoint x="70" y="180" as="sourcePoint" />
            <mxPoint x="280" y="275" as="targetPoint" />
          </mxGeometry>
        </mxCell>
        <mxCell id="CaS524MaxykVnZgtaxcf-62" style="rounded=0;orthogonalLoop=1;jettySize=auto;html=1;endArrow=none;endFill=0;entryX=0;entryY=0.5;entryDx=0;entryDy=0;" edge="1" parent="1" target="CaS524MaxykVnZgtaxcf-17">
          <mxGeometry relative="1" as="geometry">
            <mxPoint x="70" y="180" as="sourcePoint" />
            <mxPoint x="280" y="345" as="targetPoint" />
          </mxGeometry>
        </mxCell>
        <mxCell id="CaS524MaxykVnZgtaxcf-63" style="rounded=0;orthogonalLoop=1;jettySize=auto;html=1;endArrow=none;endFill=0;entryX=0;entryY=0.5;entryDx=0;entryDy=0;" edge="1" parent="1" target="CaS524MaxykVnZgtaxcf-13">
          <mxGeometry relative="1" as="geometry">
            <mxPoint x="70" y="180" as="sourcePoint" />
            <mxPoint x="280" y="445" as="targetPoint" />
          </mxGeometry>
        </mxCell>
        <mxCell id="CaS524MaxykVnZgtaxcf-64" style="rounded=0;orthogonalLoop=1;jettySize=auto;html=1;endArrow=none;endFill=0;entryX=0;entryY=0.5;entryDx=0;entryDy=0;" edge="1" parent="1" target="CaS524MaxykVnZgtaxcf-11">
          <mxGeometry relative="1" as="geometry">
            <mxPoint x="70" y="661" as="sourcePoint" />
            <mxPoint x="280" y="536" as="targetPoint" />
          </mxGeometry>
        </mxCell>
        <mxCell id="CaS524MaxykVnZgtaxcf-66" style="rounded=0;orthogonalLoop=1;jettySize=auto;html=1;endArrow=none;endFill=0;entryX=0;entryY=0.5;entryDx=0;entryDy=0;" edge="1" parent="1" target="CaS524MaxykVnZgtaxcf-12">
          <mxGeometry relative="1" as="geometry">
            <mxPoint x="70" y="661" as="sourcePoint" />
            <mxPoint x="280" y="616" as="targetPoint" />
          </mxGeometry>
        </mxCell>
        <mxCell id="CaS524MaxykVnZgtaxcf-67" style="rounded=0;orthogonalLoop=1;jettySize=auto;html=1;endArrow=none;endFill=0;entryX=0;entryY=0.5;entryDx=0;entryDy=0;" edge="1" parent="1" target="CaS524MaxykVnZgtaxcf-25">
          <mxGeometry relative="1" as="geometry">
            <mxPoint x="70" y="661" as="sourcePoint" />
            <mxPoint x="280" y="686" as="targetPoint" />
          </mxGeometry>
        </mxCell>
        <mxCell id="CaS524MaxykVnZgtaxcf-68" style="rounded=0;orthogonalLoop=1;jettySize=auto;html=1;endArrow=none;endFill=0;entryX=0;entryY=0.5;entryDx=0;entryDy=0;" edge="1" parent="1" target="CaS524MaxykVnZgtaxcf-26">
          <mxGeometry relative="1" as="geometry">
            <mxPoint x="70" y="661" as="sourcePoint" />
            <mxPoint x="280" y="756" as="targetPoint" />
          </mxGeometry>
        </mxCell>
        <mxCell id="CaS524MaxykVnZgtaxcf-69" style="rounded=0;orthogonalLoop=1;jettySize=auto;html=1;endArrow=none;endFill=0;entryX=0.5;entryY=1;entryDx=0;entryDy=0;" edge="1" parent="1" target="CaS524MaxykVnZgtaxcf-8">
          <mxGeometry relative="1" as="geometry">
            <mxPoint x="70" y="661" as="sourcePoint" />
            <mxPoint x="280" y="846" as="targetPoint" />
            <Array as="points">
              <mxPoint x="320" y="991" />
              <mxPoint x="710" y="991" />
            </Array>
          </mxGeometry>
        </mxCell>
        <mxCell id="CaS524MaxykVnZgtaxcf-70" style="rounded=0;orthogonalLoop=1;jettySize=auto;html=1;endArrow=none;endFill=0;entryX=0.794;entryY=0.922;entryDx=0;entryDy=0;entryPerimeter=0;" edge="1" parent="1" target="CaS524MaxykVnZgtaxcf-8">
          <mxGeometry relative="1" as="geometry">
            <mxPoint x="70" y="180" as="sourcePoint" />
            <mxPoint x="280" y="515" as="targetPoint" />
            <Array as="points">
              <mxPoint x="210" y="980" />
              <mxPoint x="740" y="980" />
            </Array>
          </mxGeometry>
        </mxCell>
        <mxCell id="CaS524MaxykVnZgtaxcf-71" style="edgeStyle=orthogonalEdgeStyle;rounded=0;orthogonalLoop=1;jettySize=auto;html=1;endArrow=open;endFill=0;dashed=1;" edge="1" parent="1">
          <mxGeometry relative="1" as="geometry">
            <mxPoint x="320" y="510" as="sourcePoint" />
            <mxPoint x="320" y="460" as="targetPoint" />
          </mxGeometry>
        </mxCell>
        <mxCell id="CaS524MaxykVnZgtaxcf-72" value="&amp;lt;&amp;lt;include&amp;gt;&amp;gt;" style="edgeLabel;html=1;align=center;verticalAlign=middle;resizable=0;points=[];" connectable="0" vertex="1" parent="CaS524MaxykVnZgtaxcf-71">
          <mxGeometry x="-0.2929" y="1" relative="1" as="geometry">
            <mxPoint as="offset" />
          </mxGeometry>
        </mxCell>
      </root>
    </mxGraphModel>
  </diagram>
</mxfile>
